<?xml version="1.0" standalone="no"?><!-- Generator: Gravit.io --><svg xmlns="http://www.w3.org/2000/svg" xmlns:xlink="http://www.w3.org/1999/xlink" style="isolation:isolate" viewBox="1170.5274267604677 -241 218.47678084588256 215.80757747327527" width="218.47678084588256" height="215.80757747327527"><path d=" M 1192.4045337732196 -153.14905088947046 C 1180.169648314585 -149.74076136885083 1174.0522055852675 -135.93281920839172 1179.6452960806434 -124.13489394470832 C 1182.8788015232826 -116.96874674750802 1189.2584203695706 -113.21088907092741 1197.7354481516247 -113.21088907092741 C 1209.0090211813667 -113.21088907092741 1217.1364808074595 -121.42574073601065 1217.0490887684693 -132.78670580474284 C 1217.0490887684693 -147.03160816015316 1205.1637714657957 -156.7321244880706 1192.4045337732196 -153.14905088947046 Z  M 1205.3385555437762 -150.00293748582158 C 1217.4860489634207 -143.71071067852375 1219.4960658601963 -129.81537647907442 1209.795549532279 -120.02746811216667 C 1205.2511635047858 -115.48308208467381 1202.105050101137 -114.43437761679087 1194.9389029039367 -115.13351392871283 C 1183.2283696792438 -116.26961043558606 1175.9748304430532 -129.37841628412315 1180.6066085095363 -141.00155746982608 C 1182.1796652113608 -144.9341992243872 1187.248403472795 -149.5659772908703 1191.3558293053366 -150.78946583673377 C 1195.6380392158587 -152.10034642158752 1201.9302660231565 -151.75077826562654 1205.3385555437762 -150.00293748582158 Z " fill-rule="evenodd" fill="rgb(0,0,0)" stroke-width="0.13333333333333333" stroke="rgba(0,0,0,0)" stroke-linejoin="miter" stroke-linecap="butt"/><path d=" M 1355.5492479771378 -207.4016135429825 C 1348.2957087409472 -204.2555001393336 1342.7900102845617 -196.30282459122105 1342.7900102845617 -188.87450127705006 C 1342.7900102845617 -175.41612727255193 1354.238367392284 -165.19125871069298 1366.6480369288993 -167.55084376342967 C 1371.9789513073042 -168.59954823131267 1375.037672671963 -170.1726049331371 1378.0090019976315 -173.40611037577628 C 1382.2038198691632 -177.86310436427885 1383.4273084150268 -181.70835407984976 1383.0777402590656 -189.22406943301104 C 1382.7281721031047 -195.7784723572796 1382.5533880251241 -196.21543255223082 1378.970314426524 -200.49764246275294 C 1376.9602975297485 -203.03201159347014 1373.5520080091287 -205.82855684115805 1371.5419911123531 -206.78986927005076 C 1367.1723891628408 -208.8872782058167 1359.6566738096794 -209.14945432278745 1355.5492479771378 -207.4016135429825 Z " fill="rgb(0,0,0)" stroke-width="0.13333333333333333" stroke="rgba(0,0,0,0)" stroke-linejoin="miter" stroke-linecap="butt"/><path d=" M 1252.270001896064 -168.80603169470828 C 1249.8140607418866 -163.4392458149328 1249.7375817446991 -157.1614588097492 1252.0685658265138 -152.77044097695017 L 1253.6504424237773 -149.9019624353105 L 1249.0009159376473 -144.92565434326366 C 1242.916188388474 -138.38042303826722 1241.7412489942703 -136.9044382378362 1242.5852184757873 -136.67760710647303 C 1242.9384185571457 -136.5102838501519 1244.7268197015471 -137.91188380678045 1246.5059440615908 -139.7503454729279 C 1248.2850684216344 -141.58880713907536 1250.8896086944787 -144.07416109289755 1252.26530188248 -145.15231490568874 C 1254.6876419302425 -147.16177642811294 1254.8103342802822 -147.14689945935243 1258.8219041252194 -144.29505090198205 C 1269.0664595001206 -136.89029087095588 1283.1130658486175 -139.79344125876662 1288.4320559289702 -150.2909051025964 C 1291.0645971238266 -155.5740293542113 1291.2357675490414 -159.0391690928417 1289.1615391050489 -168.6278965335863 C 1288.825139576898 -170.4738819685831 1292.136080012459 -172.62458940976302 1299.492191399372 -175.28077265092384 C 1303.9166397696474 -176.86072566374037 1305.487486567044 -176.9814944293331 1306.5414866267165 -175.9199706008112 C 1307.7181790364289 -174.84356980352874 1308.5528717335876 -175.05360038168453 1313.0721821008287 -177.92926155429728 C 1320.6272942660307 -182.73999940553176 1320.2796943690748 -183.46687672141144 1310.6780135440165 -182.82592575601535 C 1306.6625965301855 -182.56583465611368 1304.7329494670282 -182.05283508728348 1305.0266416733446 -181.39474243080383 C 1305.5303644578169 -179.90195707716543 1304.3759022167762 -179.10821868633258 1299.8138845277003 -177.42045029223698 C 1297.7317911769824 -176.67694299208802 1294.1122815663446 -175.0616358573481 1291.6026032904658 -173.8719900633222 L 1287.1576777670273 -171.60979064090753 L 1284.1034929692885 -174.65679280767318 C 1280.9414927902706 -177.841364293239 1277.885384408085 -179.33239663136862 1272.393982593823 -180.2472449256705 C 1263.918933656731 -181.71061747966405 1256.0254983789314 -177.18989523479036 1252.270001896064 -168.80603169470828 Z  M 1262.4905740867848 -165.82379644951095 C 1269.842667735866 -161.2596846070502 1279.8176846575693 -154.1988478730243 1283.2938541960666 -151.03843014057713 C 1285.3237928716537 -149.2983365024126 1285.2940389341327 -149.05295180233338 1283.3922222240494 -147.2293671049464 C 1278.0455723595608 -142.15084381602293 1272.9835084859685 -140.95944500648824 1265.1963061428771 -142.96189446687742 C 1255.4218724460334 -145.51654478691393 1249.6966274383733 -155.79696599055285 1252.7810778804474 -165.32041480291497 C 1253.3871864307343 -167.2388614972674 1254.29258737174 -169.05876959469873 1254.7740799875403 -169.43612342917567 C 1255.1867879439408 -169.75956957301304 1258.6648810668848 -168.15512166920183 1262.4905740867848 -165.82379644951095 Z  M 1280.8757024550737 -160.35761912812393 C 1280.8310715487921 -159.98954207800512 1280.2659173048312 -159.43558820284898 1279.6227016171122 -159.26458834657222 C 1278.9107012699928 -159.03968079965597 1278.9553321762744 -159.40775784977484 1279.711963429675 -160.00074244680997 C 1280.4146869924361 -160.66251170324517 1280.9891180207553 -160.77960386888236 1280.8757024550737 -160.35761912812393 Z " fill-rule="evenodd" fill="rgb(0,0,0)" stroke-width="0.13333333333333333" stroke="rgba(0,0,0,0)" stroke-linejoin="miter" stroke-linecap="butt"/><path d=" M 1270.6662526880275 -82.12876056979317 C 1270.6224168934073 -84.65838099399485 1270.5781900309726 -87.28381303276711 1270.5330296940215 -90.13794632807986 C 1270.1834615380606 -108.66505859401235 1269.7465013431092 -124.83258580720812 1269.3969331871483 -126.05607435307158 C 1268.959972992197 -127.71652309388628 1268.0860526022946 -128.41565940580827 1265.5516834715775 -128.85261960075948 C 1257.6863999624552 -130.25089222460346 1249.9959005313133 -136.63051107089152 1246.762395088674 -144.49579458001378 C 1245.0145543088693 -148.9527885685164 1244.1406339189668 -153.409782557019 1244.8397702308887 -154.54587906389224 C 1245.8010826597815 -156.11893576571669 1247.0245712056449 -154.54587906389224 1247.0245712056449 -151.66194177721408 C 1247.0245712056449 -144.67057865799427 1254.3655024808259 -134.88267029108655 1261.4442576390359 -132.26090912137914 C 1275.9513361114168 -127.01738678196432 1290.2836305058174 -134.79527825209632 1293.342351870476 -149.65192488043837 C 1294.3036642993688 -154.45848702490198 1296.0515050791737 -155.9441516877362 1296.6632493521056 -152.4484701281263 C 1297.0128175080665 -150.7880213873116 1292.5558235195638 -141.61185729333562 1289.2349260379344 -137.24225534382325 C 1286.6131648682272 -133.74657378421335 1279.3596256320366 -129.46436387369124 1274.7278475655535 -128.677835522779 L 1271.3195580449337 -128.15348328883752 L 1271.8439102788752 -97.39148556427043 C 1271.9267453905597 -92.06242671256365 1272.0357524350927 -86.78571172655353 1272.1511242522129 -82.2047240421725 L 1270.6662526880275 -82.12876056979317 Z " fill="rgb(0,0,0)" stroke-width="0.13333333333333333" stroke="rgba(0,0,0,0)" stroke-linejoin="miter" stroke-linecap="butt"/><path d=" M 1194.6662526880275 -104.12876056979317 C 1195.04878074971 -83.30205123035395 1195.4189107862262 -78.2810989692932 1196.2808704738266 -77.96765908289314 C 1197.2421829027192 -77.61809092693215 1197.3295749417093 -78.66679539481513 1196.8926147467582 -83.12378938331773 C 1196.713273741472 -85.21610111165651 1196.4112549097358 -93.52408938012599 1196.1511242522129 -104.2047240421725 L 1194.6662526880275 -104.12876056979317 Z " fill="rgb(0,0,0)" stroke-width="0.13333333333333333" stroke="rgba(0,0,0,0)" stroke-linejoin="miter" stroke-linecap="butt"/><path d=" M 1337.161365291066 -179.5462416347264 C 1336.4622289791441 -178.41014512785318 1337.3361493690466 -173.95315113935058 1339.0839901488514 -169.49615715084795 C 1342.3174955914906 -161.63087364172569 1350.0079950226325 -155.25125479543763 1357.8732785317547 -153.85298217159365 C 1360.4076476624718 -153.41602197664244 1361.2815680523743 -152.71688566472045 1361.7185282473256 -151.05643692390575 C 1362.0680964032865 -149.8329483780423 1362.5050565982378 -133.66542116484652 1362.8546247541988 -115.13830889891405 C 1363.29158494915 -87.52242457799586 1363.641153105111 -81.3175898096883 1364.6024655340038 -80.9680216537273 C 1365.5637779628964 -80.61845349776632 1365.6511700018868 -81.6671579656493 1365.2142098069355 -86.1241519541519 C 1364.9520336899648 -89.18287331881056 1364.4276814560233 -105.52518460998684 1364.1655053390525 -122.3918481351046 L 1363.641153105111 -153.1538458596717 L 1367.0494426257308 -153.67819809361316 C 1371.6812206922139 -154.4647264445254 1378.9347599284042 -158.74693635504752 1381.5565210981117 -162.24261791465742 C 1384.877418579741 -166.6122198641698 1389.3344125682438 -175.78838395814577 1388.9848444122829 -177.44883269896047 C 1388.373100139351 -180.94451425857036 1386.6252593595461 -179.45884959573615 1385.6639469306533 -174.65228745127254 C 1382.6052255659947 -159.7956408229305 1368.272931171594 -152.0177493527985 1353.7658526992132 -157.2612716922133 C 1346.687097541003 -159.88303286192073 1339.3461662658221 -169.67094122882844 1339.3461662658221 -176.66230434804825 C 1339.3461662658221 -179.5462416347264 1338.1226777199588 -181.11929833655086 1337.161365291066 -179.5462416347264 Z " fill="rgb(0,0,0)" stroke-width="0.13333333333333333" stroke="rgba(0,0,0,0)" stroke-linejoin="miter" stroke-linecap="butt"/><path d=" M 1170.5388345485464 -132.4836843899365 C 1170.3677296058063 -127.40757108864318 1172.135814014122 -120.90558326451465 1174.8734930979654 -116.62795969600903 C 1184.6264748341582 -101.57072473486927 1204.7027881156778 -100.20188519294747 1217.1934489357143 -113.71917566942521 C 1220.9577576759993 -117.8256942951906 1222.5547371415746 -120.27819847446716 1222.8399120461418 -122.33145778734985 C 1222.9539820079685 -122.95884257739735 1223.296191893449 -125.18320683302026 1223.6954367598428 -127.29350112681637 C 1224.436891511717 -131.45705473349517 1224.0946816262367 -134.02362887459853 1222.7828770652284 -134.02362887459853 C 1222.0984572942675 -134.02362887459853 1221.9273523515271 -133.2251391418108 1221.9273523515271 -130.316355115227 C 1221.9273523515271 -123.87140227201188 1218.5052534967226 -117.14127452422971 1212.7447204244686 -112.35033612750343 C 1204.132438306544 -105.16392853241399 1191.6988124674208 -104.82171864693353 1182.6872854831024 -111.43777643288888 C 1176.7556474681078 -115.82946996322131 1172.9343037469096 -123.24401748196439 1172.8772687659962 -130.4874600579672 C 1172.8772687659962 -133.6243840082047 1172.7631988041694 -134.02362887459853 1171.736569147728 -134.02362887459853 C 1170.881044434027 -134.02362887459853 1170.5958695294598 -133.6243840082047 1170.5388345485464 -132.4836843899365 Z " fill="rgb(0,0,0)" stroke-width="0.13333333333333333" stroke="rgba(0,0,0,0)" stroke-linejoin="miter" stroke-linecap="butt"/><rect x="1170.5274267604677" y="-241" width="215.64759120174722" height="215.80757747327527" transform="matrix(1,0,0,1,0,0)" fill="rgba(0,0,0,0)" stroke-width="0" stroke="rgb(255,0,0)" stroke-linejoin="miter" stroke-linecap="square"/></svg>