<?xml version="1.0" standalone="no"?><!-- Generator: Gravit.io --><svg xmlns="http://www.w3.org/2000/svg" xmlns:xlink="http://www.w3.org/1999/xlink" style="isolation:isolate" viewBox="64 310.32652042577297 629.2265625 79.40056702135047" width="629.2265625" height="79.40056702135047"><path d=" M 113.384765625 314.6796875 L 142.6328125 381.916015625 L 171.978515625 314.6796875 L 175.8359375 314.6796875 L 175.8359375 385.7734375 L 173.19921875 385.7734375 L 173.19921875 318.5859375 L 143.70703125 385.7734375 L 141.607421875 385.7734375 L 112.26171875 318.927734375 L 112.26171875 385.7734375 L 109.625 385.7734375 L 109.625 314.6796875 L 113.384765625 314.6796875 Z  M 243.21875 314.6796875 L 243.21875 362.82421875 Q 243.21875 374.103515625 236.67578125 380.4267578125 Q 230.1328125 386.75 218.951171875 386.75 Q 207.76953125 386.75 201.2265625 380.4267578125 Q 194.68359375 374.103515625 194.634765625 363.01953125 L 194.634765625 314.6796875 L 197.271484375 314.6796875 L 197.271484375 362.7265625 Q 197.271484375 372.58984375 203.2041015625 378.3515625 Q 209.13671875 384.11328125 218.951171875 384.11328125 Q 228.765625 384.11328125 234.673828125 378.3515625 Q 240.58203125 372.58984375 240.58203125 362.677734375 L 240.58203125 314.6796875 L 243.21875 314.6796875 Z  M 264.703125 383.13671875 L 301.177734375 383.13671875 L 301.177734375 385.7734375 L 262.017578125 385.7734375 L 262.017578125 314.6796875 L 264.703125 314.6796875 L 264.703125 383.13671875 Z  M 347.943359375 317.31640625 L 322.064453125 317.31640625 L 322.064453125 385.7734375 L 319.427734375 385.7734375 L 319.427734375 317.31640625 L 293.548828125 317.31640625 L 293.548828125 314.6796875 L 347.943359375 314.6796875 L 347.943359375 317.31640625 Z  M 368.984375 385.7734375 L 366.34765625 385.7734375 L 366.34765625 314.6796875 L 368.984375 314.6796875 L 368.984375 385.7734375 Z  M 430.466796875 386.75 M 473.4140625 378.205078125 M 510.474609375 376.349609375 M 572.916015625 355.353515625 L 548.2578125 355.353515625 L 548.2578125 385.7734375 L 545.62109375 385.7734375 L 545.62109375 314.6796875 L 568.27734375 314.6796875 Q 578.970703125 314.6796875 585.2939453125 320.197265625 Q 591.6171875 325.71484375 591.6171875 335.1875 Q 591.6171875 342.462890625 587.1005859375 347.9072265625 Q 582.583984375 353.3515625 575.6015625 354.669921875 L 594.595703125 385.08984375 L 594.595703125 385.7734375 L 591.8125 385.7734375 L 572.916015625 355.353515625 Z  M 548.2578125 352.716796875 L 570.669921875 352.716796875 Q 578.873046875 352.716796875 583.9267578125 347.736328125 Q 588.98046875 342.755859375 588.98046875 335.1875 Q 588.98046875 326.88671875 583.3896484375 322.1015625 Q 577.798828125 317.31640625 568.08203125 317.31640625 L 548.2578125 317.31640625 L 548.2578125 352.716796875 Z  M 648.74609375 364.533203125 L 613.931640625 364.533203125 L 606.021484375 385.7734375 L 603.140625 385.7734375 L 629.751953125 314.6796875 L 632.974609375 314.6796875 L 659.5859375 385.7734375 L 656.705078125 385.7734375 L 648.74609375 364.533203125 Z  M 614.908203125 361.896484375 L 647.76953125 361.896484375 L 631.36328125 317.853515625 L 614.908203125 361.896484375 Z " fill-rule="evenodd" fill="rgb(0,0,0)" stroke-width="1" stroke="rgba(0,0,0,0)" stroke-linejoin="miter" stroke-linecap="square"/><path d=" M 465.75 350.2265625 C 465.75 330.90953646741207 481.43297396741207 315.2265625 500.75 315.2265625 C 520.0670260325879 315.2265625 535.75 330.90953646741207 535.75 350.2265625 C 535.75 369.54358853258793 520.0670260325879 385.2265625 500.75 385.2265625 C 481.43297396741207 385.2265625 465.75 369.54358853258793 465.75 350.2265625 Z " fill="rgba(0,0,0,0)" stroke-width="3" stroke="rgb(0,0,0)" stroke-linejoin="miter" stroke-linecap="square"/><path d=" M 442.1030350890289 377.03811800916424 C 440.27911738949877 378.5685666781377 439.16743666373344 379.346973902401 437.10546875 380.5374516324554 C 420.3764334802135 390.19596464874934 398.9530926338386 384.4555977697865 389.2945796175446 367.7265625 C 379.63606660125066 350.9975272302135 385.3764334802135 329.5741863838386 402.10546875 319.9156733675446 C 415.5801974093416 312.1360351488166 429.82242393445574 313.3117293022731 441.83902587267715 323.1956739154075" fill="rgba(0,0,0,0)" stroke-width="3" stroke="rgb(0,0,0)" stroke-linejoin="miter" stroke-linecap="square"/><circle vector-effect="non-scaling-stroke" cx="0" cy="0" r="1" fill="rgb(0,0,0)" transform="matrix(10,0,0,10,74,350.2265625)" stroke-width="1" stroke="rgba(0,0,0,0)"/><circle vector-effect="non-scaling-stroke" cx="0" cy="0" r="1" fill="rgb(0,0,0)" transform="matrix(10,0,0,10,683.2265625,350.2265625)" stroke-width="1" stroke="rgba(0,0,0,0)"/><circle vector-effect="non-scaling-stroke" cx="0" cy="0" r="1" fill="rgb(0,0,0)" transform="matrix(13.5,0,0,13.5,442.1030350890289,350.71484375)" stroke-width="1" stroke="rgba(0,0,0,0)"/></svg>