<?xml version="1.0" standalone="no"?><!-- Generator: Gravit.io --><svg xmlns="http://www.w3.org/2000/svg" xmlns:xlink="http://www.w3.org/1999/xlink" style="isolation:isolate" viewBox="64 310.38342315852515 873.0731707317073 106.68317158518005" width="873.0731707317073" height="106.68317158518005"><path d=" M 132.5230352303523 314.6796875 L 173.10569105691056 407.9723704268293 L 213.82384823848238 314.6796875 L 219.17615176151762 314.6796875 L 219.17615176151762 413.3246739498646 L 215.51761517615176 413.3246739498646 L 215.51761517615176 320.09974170054204 L 174.59620596205963 413.3246739498646 L 171.6829268292683 413.3246739498646 L 130.96476964769647 320.57399644308947 L 130.96476964769647 413.3246739498646 L 127.30623306233062 413.3246739498646 L 127.30623306233062 314.6796875 L 132.5230352303523 314.6796875 Z  M 312.67208672086724 314.6796875 L 312.67208672086724 381.48185552168025 Q 312.67208672086724 397.1322620257453 303.5934959349594 405.90597476287263 Q 294.5149051490515 414.67968750000006 279 414.67968750000006 Q 263.4850948509485 414.67968750000006 254.40650406504065 405.90597476287263 Q 245.3279132791328 397.1322620257453 245.26016260162604 381.75285823170736 L 245.26016260162604 314.6796875 L 248.91869918699186 314.6796875 L 248.91869918699186 381.3463541666667 Q 248.91869918699186 395.03199102303523 257.150406504065 403.02657096883473 Q 265.3821138211382 411.0211509146341 279 411.0211509146341 Q 292.6178861788618 411.0211509146341 300.81571815718155 403.02657096883473 Q 309.0135501355013 395.03199102303523 309.0135501355013 381.27860348915993 L 309.0135501355013 314.6796875 L 312.67208672086724 314.6796875 Z  M 342.4823848238483 409.66613736449864 L 393.09214092140917 409.66613736449864 L 393.09214092140917 413.3246739498646 L 338.7560975609756 413.3246739498646 L 338.7560975609756 314.6796875 L 342.4823848238483 314.6796875 L 342.4823848238483 409.66613736449864 Z  M 457.9810298102981 318.3382240853659 L 422.07317073170736 318.3382240853659 L 422.07317073170736 413.3246739498646 L 418.4146341463414 413.3246739498646 L 418.4146341463414 318.3382240853659 L 382.5067750677507 318.3382240853659 L 382.5067750677507 314.6796875 L 457.9810298102981 314.6796875 L 457.9810298102981 318.3382240853659 Z  M 487.17615176151764 413.3246739498646 L 483.5176151761517 413.3246739498646 L 483.5176151761517 314.6796875 L 487.17615176151764 314.6796875 L 487.17615176151764 413.3246739498646 Z  M 572.4850948509485 414.67968750000006 M 632.0758807588076 402.82331893631437 M 683.4986449864498 400.2487931910569 M 770.1382113821138 371.11600186314365 L 735.9241192411923 371.11600186314365 L 735.9241192411923 413.3246739498646 L 732.2655826558265 413.3246739498646 L 732.2655826558265 314.6796875 L 763.7018970189702 314.6796875 Q 778.5392953929539 314.6796875 787.3130081300812 322.33551405826563 Q 796.0867208672087 329.9913406165312 796.0867208672087 343.13497205284557 Q 796.0867208672087 353.22982300135504 789.819783197832 360.78402354336043 Q 783.5528455284552 368.3382240853659 773.8644986449864 370.1674923780488 L 800.219512195122 412.3761644647697 L 800.219512195122 413.3246739498646 L 796.3577235772358 413.3246739498646 L 770.1382113821138 371.11600186314365 Z  M 735.9241192411923 367.45746527777777 L 767.0216802168021 367.45746527777777 Q 778.4037940379403 367.45746527777777 785.4159891598915 360.54689617208675 Q 792.4281842818428 353.63632706639567 792.4281842818428 343.13497205284557 Q 792.4281842818428 331.6173568766938 784.670731707317 324.97779048102984 Q 776.9132791327913 318.3382240853659 763.430894308943 318.3382240853659 L 735.9241192411923 318.3382240853659 L 735.9241192411923 367.45746527777777 Z  M 875.3550135501355 383.85312923441734 L 827.0487804878048 383.85312923441734 L 816.0731707317073 413.3246739498646 L 812.0758807588076 413.3246739498646 L 849 314.6796875 L 853.4715447154472 314.6796875 L 890.3956639566395 413.3246739498646 L 886.3983739837398 413.3246739498646 L 875.3550135501355 383.85312923441734 Z  M 828.4037940379403 380.1945926490515 L 874 380.1945926490515 L 851.2357723577236 319.08348153794043 L 828.4037940379403 380.1945926490515 Z " fill-rule="evenodd" fill="rgb(0,0,0)" stroke-width="1" stroke="rgba(0,0,0,0)" stroke-linejoin="miter" stroke-linecap="square"/><path d=" M 621.4417344173442 364.00218072493226 C 621.4417344173442 337.1991527339159 643.2023920631841 315.4384950880759 670.0054200542005 315.4384950880759 C 696.8084480452168 315.4384950880759 718.5691056910568 337.1991527339159 718.5691056910568 364.00218072493226 C 718.5691056910568 390.8052087159486 696.8084480452169 412.5658663617886 670.0054200542005 412.5658663617886 C 643.2023920631842 412.56586636178866 621.4417344173442 390.8052087159486 621.4417344173442 364.00218072493226 Z " fill="rgba(0,0,0,0)" stroke-width="3" stroke="rgb(0,0,0)" stroke-linejoin="miter" stroke-linecap="square"/><path d=" M 588.6307695544249 401.20412224442305 C 586.1000219604969 403.3276716170908 584.5575272949363 404.4077380095645 581.6964769647697 406.0595661878514 C 558.4843738262041 419.4610801833595 528.7587626789305 411.49612668192594 515.3572486834223 388.28402354336043 C 501.9557346879142 365.0719204047949 509.92068818934774 335.34630925752134 533.1327913279132 321.94479526201314 C 551.8294338037476 311.150283695648 571.5910055675917 312.78159916060656 588.2644478233352 326.4959071333026" fill="rgba(0,0,0,0)" stroke-width="3" stroke="rgb(0,0,0)" stroke-linejoin="miter" stroke-linecap="square"/><circle vector-effect="non-scaling-stroke" cx="0" cy="0" r="1" fill="rgb(0,0,0)" transform="matrix(13.875338753387535,0,0,13.875338753387535,77.87533875338754,364.00218072493226)" stroke-width="1" stroke="rgba(0,0,0,0)"/><circle vector-effect="non-scaling-stroke" cx="0" cy="0" r="1" fill="rgb(0,0,0)" transform="matrix(13.875338753387535,0,0,13.875338753387535,923.1978319783198,364.00218072493226)" stroke-width="1" stroke="rgba(0,0,0,0)"/><circle vector-effect="non-scaling-stroke" cx="0" cy="0" r="1" fill="rgb(0,0,0)" transform="matrix(18.73170731707317,0,0,18.73170731707317,588.6307695544249,364.6796875)" stroke-width="1" stroke="rgba(0,0,0,0)"/></svg>