<svg xmlns="http://www.w3.org/2000/svg" viewBox="0 0 530.1 77.9"><path fill="#333333" d="M75.4 71.2V22.3L58.9 61.1h-5.5L36.6 22.3v48.9h-6.4V6.8h6.4l19.7 45.6L75.4 6.8h6.4v64.4h-6.4zM117.5 71.6c-13.1 0-22.6-8.9-22.6-21.6V7.2h6.9v42.3c0 9.7 6.2 16.1 15.6 16.1 9.5 0 15.7-6.4 15.7-16.1V7.2h6.9V50c.1 12.7-9.4 21.6-22.5 21.6zM153 71.6V6.9l7-.2v58.5h31.9v6.2l-38.9.2zM211.6 13.3v58.1h-6.7v-58h-19.2V6.7h45v6.7h-19.1zM243.5 71.5V6.9h6.7v64.6h-6.7z"/><circle cx="314.2" cy="39.1" r="12.9" fill="#333333"/><path fill="#333333" d="M314 57.5c-4.8 4.8-11.4 7.8-18.6 7.8-14.5 0-26.3-11.8-26.3-26.3s11.8-26.3 26.3-26.3c7.3 0 13.9 3 18.6 7.8l4.4-4.4c-5.9-5.9-14-9.6-23-9.6-17.9 0-32.5 14.5-32.5 32.5 0 17.9 14.5 32.5 32.5 32.5 9 0 17.2-3.7 23-9.6l-4.4-4.4zM440.5 71.5l-14.2-28.7h-15v28.7h-6.7V6.7h23.9c10.9 0 18.5 6.8 18.5 18 0 9.5-5.5 15.6-13.6 17.4l14.8 29.4h-7.7zM428 12.9h-16.6v23.7H428c7.3 0 12.4-3.9 12.4-11.8s-5.1-11.9-12.4-11.9zM497.6 71.4l-4.5-13.1h-28.2l-4.5 13.1h-7.1l22.9-64.3h5.6l22.9 64.3h-7.1zM479.2 17l-12.3 35.5h24.4L479.2 17z"/><circle cx="10.7" cy="39.5" r="6.3" fill="#333333"/><circle cx="514.6" cy="39.5" r="6.3" fill="#333333"/><path fill="#333333" d="M366.2 6.9c-17.7 0-32.1 14.4-32.1 32.1s14.4 32.1 32.1 32.1c17.7 0 32.1-14.4 32.1-32.1S384 6.9 366.2 6.9zm0 57.9c-14.3 0-25.8-11.6-25.8-25.8s11.6-25.8 25.8-25.8c14.3 0 25.8 11.6 25.8 25.8s-11.5 25.8-25.8 25.8z"/></svg>