<svg xmlns="http://www.w3.org/2000/svg" viewBox="0 0 141.7 86.7">
	<path fill="#333333" d="M72.3 4C50.7 4 33.2 21.5 33.2 43.1s17.5 39.1 39.1 39.1 39.1-17.5 39.1-39.1S93.9 4 72.3 4zm-.4 71.2c-17.8 0-32.2-14.4-32.2-32.2 0-17.8 14.4-32.2 32.2-32.2 8.9 0 17 3.6 22.9 9.5l-4.4 4.4C85.7 19.9 79.1 17 71.9 17c-14.4 0-26.1 11.7-26.1 26.1S57.5 69 71.9 69c7.2 0 13.8-2.9 18.5-7.7l4.4 4.4c-5.9 5.9-14 9.5-22.9 9.5zm19.7-19.1c-7.2 0-13-5.8-13-13s5.8-13 13-13 13 5.8 13 13c-.1 7.2-5.9 13-13 13z"/>
	<circle class="left" cx="20.1" cy="43.1" r="6.5" fill="#333333"/>
	<circle class="right" cx="124.6" cy="43.1" r="6.5" fill="#333333"/>
</svg>