<?xml version="1.0" standalone="no"?><!-- Generator: Gravit.io --><svg xmlns="http://www.w3.org/2000/svg" xmlns:xlink="http://www.w3.org/1999/xlink" style="isolation:isolate" viewBox="108.15234375 48.037109375 534.9609375 73.046875" width="534.9609375" height="73.046875"><path d=" M 111.912109375 49.013671875 L 141.16015625 116.25 L 170.505859375 49.013671875 L 174.36328125 49.013671875 L 174.36328125 120.107421875 L 171.7265625 120.107421875 L 171.7265625 52.919921875 L 142.234375 120.107421875 L 140.134765625 120.107421875 L 110.7890625 53.26171875 L 110.7890625 120.107421875 L 108.15234375 120.107421875 L 108.15234375 49.013671875 L 111.912109375 49.013671875 Z  M 241.74609375 49.013671875 L 241.74609375 97.158203125 Q 241.74609375 108.4375 235.203125 114.7607421875 Q 228.66015625 121.083984375 217.478515625 121.083984375 Q 206.296875 121.083984375 199.75390625 114.7607421875 Q 193.2109375 108.4375 193.162109375 97.353515625 L 193.162109375 49.013671875 L 195.798828125 49.013671875 L 195.798828125 97.060546875 Q 195.798828125 106.923828125 201.7314453125 112.685546875 Q 207.6640625 118.447265625 217.478515625 118.447265625 Q 227.29296875 118.447265625 233.201171875 112.685546875 Q 239.109375 106.923828125 239.109375 97.01171875 L 239.109375 49.013671875 L 241.74609375 49.013671875 Z  M 263.23046875 117.470703125 L 299.705078125 117.470703125 L 299.705078125 120.107421875 L 260.544921875 120.107421875 L 260.544921875 49.013671875 L 263.23046875 49.013671875 L 263.23046875 117.470703125 Z  M 359.470703125 51.650390625 L 333.591796875 51.650390625 L 333.591796875 120.107421875 L 330.955078125 120.107421875 L 330.955078125 51.650390625 L 305.076171875 51.650390625 L 305.076171875 49.013671875 L 359.470703125 49.013671875 L 359.470703125 51.650390625 Z  M 376.51171875 120.107421875 L 373.875 120.107421875 L 373.875 49.013671875 L 376.51171875 49.013671875 L 376.51171875 120.107421875 Z  M 446.3359375 98.330078125 Q 445.310546875 109.31640625 438.767578125 115.2001953125 Q 432.224609375 121.083984375 420.994140625 121.083984375 Q 413.42578125 121.083984375 407.5908203125 117.2509765625 Q 401.755859375 113.41796875 398.533203125 106.3623046875 Q 395.310546875 99.306640625 395.26171875 90.224609375 L 395.26171875 79.23828125 Q 395.26171875 70.15625 398.435546875 63.0029296875 Q 401.609375 55.849609375 407.4931640625 51.943359375 Q 413.376953125 48.037109375 420.994140625 48.037109375 Q 432.126953125 48.037109375 438.71875 53.896484375 Q 445.310546875 59.755859375 446.3359375 70.693359375 L 443.69921875 70.693359375 Q 442.576171875 60.87890625 436.86328125 55.7763671875 Q 431.150390625 50.673828125 420.994140625 50.673828125 Q 410.642578125 50.673828125 404.2705078125 58.486328125 Q 397.8984375 66.298828125 397.8984375 79.43359375 L 397.8984375 89.8828125 Q 397.8984375 98.28125 400.73046875 104.7509765625 Q 403.5625 111.220703125 408.8603515625 114.833984375 Q 414.158203125 118.447265625 420.994140625 118.447265625 Q 431.19921875 118.447265625 436.9365234375 113.41796875 Q 442.673828125 108.388671875 443.69921875 98.330078125 L 446.3359375 98.330078125 Z  M 513.1328125 89.8828125 Q 513.1328125 99.111328125 509.8369140625 106.2158203125 Q 506.541015625 113.3203125 500.4375 117.2021484375 Q 494.333984375 121.083984375 486.375 121.083984375 Q 474.36328125 121.083984375 466.94140625 112.5390625 Q 459.51953125 103.994140625 459.51953125 89.4921875 L 459.51953125 79.23828125 Q 459.51953125 70.05859375 462.8154296875 62.9296875 Q 466.111328125 55.80078125 472.2392578125 51.9189453125 Q 478.3671875 48.037109375 486.27734375 48.037109375 Q 494.236328125 48.037109375 500.3642578125 51.9189453125 Q 506.4921875 55.80078125 509.8125 62.9541015625 Q 513.1328125 70.107421875 513.1328125 79.23828125 L 513.1328125 89.8828125 Z  M 510.49609375 79.140625 Q 510.49609375 66.25 503.953125 58.4619140625 Q 497.41015625 50.673828125 486.27734375 50.673828125 Q 475.291015625 50.673828125 468.748046875 58.4130859375 Q 462.205078125 66.15234375 462.205078125 79.482421875 L 462.205078125 89.8828125 Q 462.205078125 98.37890625 465.1591796875 104.8974609375 Q 468.11328125 111.416015625 473.58203125 114.931640625 Q 479.05078125 118.447265625 486.375 118.447265625 Q 497.5078125 118.447265625 504.001953125 110.68359375 Q 510.49609375 102.919921875 510.49609375 89.4921875 L 510.49609375 79.140625 Z  M 556.443359375 89.6875 L 531.78515625 89.6875 L 531.78515625 120.107421875 L 529.1484375 120.107421875 L 529.1484375 49.013671875 L 551.8046875 49.013671875 Q 562.498046875 49.013671875 568.8212890625 54.53125 Q 575.14453125 60.048828125 575.14453125 69.521484375 Q 575.14453125 76.796875 570.6279296875 82.2412109375 Q 566.111328125 87.685546875 559.12890625 89.00390625 L 578.123046875 119.423828125 L 578.123046875 120.107421875 L 575.33984375 120.107421875 L 556.443359375 89.6875 Z  M 531.78515625 87.05078125 L 554.197265625 87.05078125 Q 562.400390625 87.05078125 567.4541015625 82.0703125 Q 572.5078125 77.08984375 572.5078125 69.521484375 Q 572.5078125 61.220703125 566.9169921875 56.435546875 Q 561.326171875 51.650390625 551.609375 51.650390625 L 531.78515625 51.650390625 L 531.78515625 87.05078125 Z  M 632.2734375 98.8671875 L 597.458984375 98.8671875 L 589.548828125 120.107421875 L 586.66796875 120.107421875 L 613.279296875 49.013671875 L 616.501953125 49.013671875 L 643.11328125 120.107421875 L 640.232421875 120.107421875 L 632.2734375 98.8671875 Z  M 598.435546875 96.23046875 L 631.296875 96.23046875 L 614.890625 52.1875 L 598.435546875 96.23046875 Z " fill-rule="evenodd" fill="rgb(0,0,0)" stroke-width="1" stroke="rgba(0,0,0,0)" stroke-linejoin="miter" stroke-linecap="square"/></svg>