<?xml version="1.0" standalone="no"?><!-- Generator: Gravit.io --><svg xmlns="http://www.w3.org/2000/svg" xmlns:xlink="http://www.w3.org/1999/xlink" style="isolation:isolate" viewBox="74 144.521484375 629.2265625 73.046875" width="629.2265625" height="73.046875"><path d=" M 130.025390625 145.498046875 L 159.2734375 212.734375 L 188.619140625 145.498046875 L 192.4765625 145.498046875 L 192.4765625 216.591796875 L 189.83984375 216.591796875 L 189.83984375 149.404296875 L 160.34765625 216.591796875 L 158.248046875 216.591796875 L 128.90234375 149.74609375 L 128.90234375 216.591796875 L 126.265625 216.591796875 L 126.265625 145.498046875 L 130.025390625 145.498046875 Z  M 259.859375 145.498046875 L 259.859375 193.642578125 Q 259.859375 204.921875 253.31640625 211.2451171875 Q 246.7734375 217.568359375 235.591796875 217.568359375 Q 224.41015625 217.568359375 217.8671875 211.2451171875 Q 211.32421875 204.921875 211.275390625 193.837890625 L 211.275390625 145.498046875 L 213.912109375 145.498046875 L 213.912109375 193.544921875 Q 213.912109375 203.408203125 219.8447265625 209.169921875 Q 225.77734375 214.931640625 235.591796875 214.931640625 Q 245.40625 214.931640625 251.314453125 209.169921875 Q 257.22265625 203.408203125 257.22265625 193.49609375 L 257.22265625 145.498046875 L 259.859375 145.498046875 Z  M 281.34375 213.955078125 L 317.818359375 213.955078125 L 317.818359375 216.591796875 L 278.658203125 216.591796875 L 278.658203125 145.498046875 L 281.34375 145.498046875 L 281.34375 213.955078125 Z  M 377.583984375 148.134765625 L 351.705078125 148.134765625 L 351.705078125 216.591796875 L 349.068359375 216.591796875 L 349.068359375 148.134765625 L 323.189453125 148.134765625 L 323.189453125 145.498046875 L 377.583984375 145.498046875 L 377.583984375 148.134765625 Z  M 394.625 216.591796875 L 391.98828125 216.591796875 L 391.98828125 145.498046875 L 394.625 145.498046875 L 394.625 216.591796875 Z  M 464.44921875 196.814453125 Q 463.423828125 205.80078125 456.880859375 211.6845703125 Q 450.337890625 217.568359375 439.107421875 217.568359375 Q 431.5390625 217.568359375 425.7041015625 213.7353515625 Q 419.869140625 209.90234375 416.646484375 202.8466796875 Q 413.423828125 195.791015625 413.375 186.708984375 L 413.375 175.72265625 Q 413.375 166.640625 416.548828125 159.4873046875 Q 419.72265625 152.333984375 425.6064453125 148.427734375 Q 431.490234375 144.521484375 439.107421875 144.521484375 Q 450.240234375 144.521484375 456.83203125 150.380859375 Q 462.423828125 153.240234375 463.44921875 164.177734375 L 460.8125 164.177734375 Q 460.689453125 157.36328125 454.9765625 152.2607421875 Q 449.263671875 147.158203125 439.107421875 147.158203125 Q 428.755859375 147.158203125 422.3837890625 154.970703125 Q 416.01171875 162.783203125 416.01171875 175.91796875 L 416.01171875 186.3671875 Q 416.01171875 194.765625 418.84375 201.2353515625 Q 421.67578125 207.705078125 426.9736328125 211.318359375 Q 432.271484375 214.931640625 439.107421875 214.931640625 Q 449.3125 214.931640625 455.0498046875 209.90234375 Q 460.787109375 206.873046875 461.8125 196.814453125 L 464.44921875 196.814453125 Z  M 531.24609375 186.3671875 Q 531.24609375 195.595703125 527.9501953125 202.7001953125 Q 524.654296875 209.8046875 518.55078125 213.6865234375 Q 512.447265625 217.568359375 504.48828125 217.568359375 Q 492.4765625 217.568359375 485.0546875 209.0234375 Q 477.6328125 200.478515625 477.6328125 185.9765625 L 477.6328125 175.72265625 Q 477.6328125 166.54296875 480.9287109375 159.4140625 Q 484.224609375 152.28515625 490.3525390625 148.4033203125 Q 496.48046875 144.521484375 504.390625 144.521484375 Q 512.349609375 144.521484375 518.4775390625 148.4033203125 Q 524.60546875 152.28515625 527.92578125 159.4384765625 Q 531.24609375 166.591796875 531.24609375 175.72265625 L 531.24609375 186.3671875 Z  M 528.609375 175.625 Q 528.609375 162.734375 522.06640625 154.9462890625 Q 515.5234375 147.158203125 504.390625 147.158203125 Q 493.404296875 147.158203125 486.861328125 154.8974609375 Q 480.318359375 162.63671875 480.318359375 175.966796875 L 480.318359375 186.3671875 Q 480.318359375 194.86328125 483.2724609375 201.3818359375 Q 486.2265625 207.900390625 491.6953125 211.416015625 Q 497.1640625 214.931640625 504.48828125 214.931640625 Q 515.62109375 214.931640625 522.115234375 207.16796875 Q 528.609375 199.404296875 528.609375 185.9765625 L 528.609375 175.625 Z  M 574.556640625 186.171875 L 549.8984375 186.171875 L 549.8984375 216.591796875 L 547.26171875 216.591796875 L 547.26171875 145.498046875 L 569.91796875 145.498046875 Q 580.611328125 145.498046875 586.9345703125 151.015625 Q 593.2578125 156.533203125 593.2578125 166.005859375 Q 593.2578125 173.28125 588.7412109375 178.7255859375 Q 584.224609375 184.169921875 577.2421875 185.48828125 L 596.236328125 215.908203125 L 596.236328125 216.591796875 L 593.453125 216.591796875 L 574.556640625 186.171875 Z  M 549.8984375 183.53515625 L 572.310546875 183.53515625 Q 580.513671875 183.53515625 585.5673828125 178.5546875 Q 590.62109375 173.57421875 590.62109375 166.005859375 Q 590.62109375 157.705078125 585.0302734375 152.919921875 Q 579.439453125 148.134765625 569.72265625 148.134765625 L 549.8984375 148.134765625 L 549.8984375 183.53515625 Z  M 650.38671875 195.3515625 L 615.572265625 195.3515625 L 607.662109375 216.591796875 L 604.78125 216.591796875 L 631.392578125 145.498046875 L 634.615234375 145.498046875 L 661.2265625 216.591796875 L 658.345703125 216.591796875 L 650.38671875 195.3515625 Z  M 616.548828125 192.71484375 L 649.41015625 192.71484375 L 633.00390625 148.671875 L 616.548828125 192.71484375 Z " fill-rule="evenodd" fill="rgb(0,0,0)" stroke-width="1" stroke="rgba(0,0,0,0)" stroke-linejoin="miter" stroke-linecap="square"/><circle vector-effect="non-scaling-stroke" cx="0" cy="0" r="1" fill="rgb(0,0,0)" transform="matrix(10,0,0,10,84,181.044921875)" stroke-width="1" stroke="rgba(0,0,0,0)"/><circle vector-effect="non-scaling-stroke" cx="0" cy="0" r="1" fill="rgb(0,0,0)" transform="matrix(10,0,0,10,693.2265625,181.044921875)" stroke-width="1" stroke="rgba(0,0,0,0)"/><circle vector-effect="non-scaling-stroke" cx="0" cy="0" r="1" fill="rgb(0,0,0)" transform="matrix(10,0,0,10,462.8125,181.044921875)" stroke-width="1" stroke="rgba(0,0,0,0)"/></svg>