<?xml version="1.0" standalone="no"?><!-- Generator: Gravit.io --><svg xmlns="http://www.w3.org/2000/svg" xmlns:xlink="http://www.w3.org/1999/xlink" style="isolation:isolate" viewBox="26.882577082424437 32.35777045739141 145.61742291757557 128.41342768430331" width="145.61742291757557" height="128.41342768430331"><line x1="96.24242424242424" y1="33" x2="96.24242424242424" y2="118.74066973558598" stroke-width="1" stroke="rgb(0,0,0)" stroke-linejoin="miter" stroke-linecap="square"/><circle vector-effect="non-scaling-stroke" cx="0" cy="0" r="1" fill="rgba(0,0,0,0)" transform="matrix(15.151515151515152,0,0,15.151515151515152,96.24242424242425,134.1818181818182)" stroke-width="1" stroke="rgb(0,0,0)"/><line x1="42.53409223393959" y1="119.95583427841008" x2="74.73106193090929" y2="33.000000000000014" stroke-width="1" stroke="rgb(0,0,0)" stroke-linejoin="miter" stroke-linecap="square"/><circle vector-effect="non-scaling-stroke" cx="0" cy="0" r="1" fill="rgb(0,0,0)" transform="matrix(15.151515151515152,0,0,15.151515151515152,42.53409223393959,122.8181818181818)" stroke-width="1" stroke="rgb(0,0,0)"/><path d=" M 96.24242424242425 134.35227434833837 Q 66.53070658256384 130.20455344698635 42.53409223393959 122.81818181818178" fill="rgba(0,0,0,0)" stroke-width="1" stroke-dasharray="4,5" stroke="rgb(93,93,93)" stroke-linejoin="miter" stroke-linecap="square"/><path d=" M 96.24242424242425 151.60606060606057 L 96.24242424242425 159 L 42.53409223393959 159 L 42.53409223393959 151.60606060606057" fill="rgba(0,0,0,0)" stroke-width="1.1807987611298176" stroke="rgb(0,0,0)" stroke-linejoin="miter" stroke-linecap="square"/><path d=" M 42.53409223393959 153.71861471861467 L 42.53409223393959 158.99999999999994 L 53.303030303030305 158.99999999999994 L 53.303030303030305 153.71861471861467" fill="rgba(0,0,0,0)" stroke-width="1.1807987611298176" stroke="rgb(0,0,0)" stroke-linejoin="miter" stroke-linecap="square"/><path d=" M 63.96212386181857 153.71861471861467 L 63.96212386181857 158.99999999999994 L 74.73106193090928 158.99999999999994 L 74.73106193090928 153.71861471861467" fill="rgba(0,0,0,0)" stroke-width="1.1807987611298176" stroke="rgb(0,0,0)" stroke-linejoin="miter" stroke-linecap="square"/><path d=" M 53.30303030303031 153.71861471861467 L 53.30303030303031 158.99999999999994 L 64.07196837212102 158.99999999999994 L 64.07196837212102 153.71861471861467" fill="rgba(0,0,0,0)" stroke-width="1.1807987611298176" stroke="rgb(0,0,0)" stroke-linejoin="miter" stroke-linecap="square"/><path d=" M 74.73106193090929 153.71861471861467 L 74.73106193090929 158.99999999999994 L 85.5 158.99999999999994 L 85.5 153.71861471861467" fill="rgba(0,0,0,0)" stroke-width="1.1807987611298176" stroke="rgb(0,0,0)" stroke-linejoin="miter" stroke-linecap="square"/><path d=" M 85.47348617333353 153.71861471861467 L 85.47348617333353 158.99999999999994 L 96.24242424242424 158.99999999999994 L 96.24242424242424 153.71861471861467" fill="rgba(0,0,0,0)" stroke-width="1.1807987611298176" stroke="rgb(0,0,0)" stroke-linejoin="miter" stroke-linecap="square"/><line x1="42.53409223393959" y1="122.81818181818178" x2="42.53409223393959" y2="151.60606060606057" stroke-width="1" stroke-dasharray="4,5" stroke="rgb(93,93,93)" stroke-linejoin="miter" stroke-linecap="square"/><line x1="126.54545454545453" y1="118.93652591994096" x2="126.54545454545453" y2="33.000000000000014" stroke-width="1" stroke="rgb(0,0,0)" stroke-linejoin="miter" stroke-linecap="square"/><line x1="156.84848484848484" y1="118.77961050599276" x2="156.84848484848484" y2="33.000000000000014" stroke-width="1" stroke="rgb(0,0,0)" stroke-linejoin="miter" stroke-linecap="square"/><line x1="96.24242424242424" y1="134.35227434833837" x2="96.24242424242424" y2="151.60606060606057" stroke-width="1" stroke-dasharray="4,5" stroke="rgb(93,93,93)" stroke-linejoin="miter" stroke-linecap="square"/><circle vector-effect="non-scaling-stroke" cx="0" cy="0" r="1" fill="rgba(0,0,0,0)" transform="matrix(15.151515151515152,0,0,15.151515151515152,126.54545454545453,134.1818181818182)" stroke-width="1" stroke="rgb(0,0,0)"/><circle vector-effect="non-scaling-stroke" cx="0" cy="0" r="1" fill="rgba(0,0,0,0)" transform="matrix(15.151515151515152,0,0,15.151515151515152,156.84848484848484,134.1818181818182)" stroke-width="1" stroke="rgb(0,0,0)"/></svg>