<?xml version="1.0" standalone="no"?><!-- Generator: Gravit.io --><svg xmlns="http://www.w3.org/2000/svg" xmlns:xlink="http://www.w3.org/1999/xlink" style="isolation:isolate" viewBox="83.73896932969245 -241 215.6475912017471 215.80757747327527" width="215.6475912017471" height="215.80757747327527"><g opacity="0.8"><path d=" M 179.2344150938692 -219.05977761820898 C 172.46414798138937 -216.66920678096764 167.6302679100362 -208.24742699350932 168.71066954589014 -200.70333162822098 C 168.9556005914967 -198.76267956165142 169.07434424361168 -197.06559623385962 168.91474906640292 -197.00667851007844 C 168.75515388919405 -196.94776078629727 167.22647178681666 -196.2746099869162 165.47092483752 -195.62651502532302 C 161.31309828416215 -194.0190325913721 153.12454077549057 -189.18260601131814 154.33448662572675 -189.0489748764497 C 154.86383793520497 -188.99051125494478 157.03090074641761 -189.8993329494506 159.1473977797782 -191.04337143680496 C 161.1966251434285 -192.27138348572842 164.4302884172506 -193.8278460395512 166.27816087404562 -194.6188322864946 L 169.57074187164915 -196.01569966310862 L 171.68996351866724 -193.02605923034045 C 174.45682602500244 -188.96981833496275 178.9115117086476 -186.33459244943433 183.75129510959198 -185.80006790996046 C 188.74232174181589 -185.24883947862813 191.90916944820378 -186.20032910733286 196.00717007322794 -189.3452996918668 C 200.11352264418144 -192.5658918920404 202.04355225344045 -196.1799337554427 202.54421490692084 -201.4061771805152 L 202.94465420925007 -205.7249612179106 L 208.22055520762194 -206.36697474495574 C 218.14232844145977 -207.4909525195611 218.36919328837905 -207.46589668177322 218.87439696462206 -205.80267523997483 C 219.19449552359208 -204.54261771416313 219.5558997099323 -204.3496147532372 221.21912115173075 -204.85481842948016 C 222.3195835003338 -205.11599926466906 223.5796410261455 -205.43609782363913 224.0417226659133 -205.4616077637032 C 224.51215625161035 -205.5627393194071 226.2593512549779 -206.1352126653605 228.01489820427457 -206.7833076269537 C 231.3747488715885 -208.09620144199866 231.24020953216746 -208.26414856513676 225.2317859083571 -209.99935880436485 C 220.71073875955403 -211.34066527808815 218.1061960440851 -211.32214497712457 217.96421296328742 -210.03657751124874 C 217.88904544992386 -209.35598297049089 215.13371360545182 -208.66522007469885 210.3282461927771 -208.12433810335753 C 203.1200450737649 -207.31301514634546 202.73358504963687 -207.2791532603521 202.11935197403693 -208.64824018552073 C 200.6635668736418 -212.1004163603329 197.3506491659698 -216.06387764593617 194.6862805221673 -217.58284549555552 C 190.66862064050213 -220.0167164742288 183.77034972542572 -220.6255003225136 179.2344150938692 -219.05977761820898 Z  M 183.46450644197625 -213.004875137033 C 185.57020291306958 -205.04136606617575 188.35268300175414 -190.03760299944437 187.89150956653873 -188.63420008600608 C 187.4052802935356 -187.00393232564855 183.76754489917425 -186.64025762792707 180.38917393089685 -187.93190652835094 C 175.10310457749063 -189.97005733241437 171.73126914603745 -194.09311379522634 170.22310185868525 -200.53629270963543 C 169.31337195962692 -204.0812484942222 171.20772327378768 -210.83753632850093 173.81880152608073 -213.6874641918525 C 175.72468350210443 -215.6967482349614 180.6211141154488 -218.44736095171416 181.56243538911917 -217.96067757643485 C 181.85656990574898 -217.85164817707798 182.75703965432547 -215.60896375022557 183.46450644197625 -213.004875137033 Z " fill-rule="evenodd" fill="rgb(0,0,0)" stroke-width="0.13333333333333333" stroke="rgba(0,0,0,0)" stroke-linejoin="miter" stroke-linecap="butt"/></g><path d=" M 137.06069916024637 -170.87266198236767 C 131.17574116449236 -166.28438964669505 129.87905550441087 -164.58872378351163 130.47752580906388 -162.3943326664508 C 130.77676096139032 -161.29713710792038 130.17829065673743 -159.20249104163503 129.28058519975798 -157.80606033077817 C 128.28313469200305 -156.4096296199213 126.58746882881962 -153.51702314743198 125.59001832106469 -151.42237708114664 C 123.59511730555494 -147.73181020245346 123.59511730555494 -147.73181020245346 119.10659002065768 -148.43002555788183 C 109.13208494310845 -150.12569142106526 101.95044128727295 -148.33028050710635 96.46446349462087 -142.54506756212783 C 87.58715397560206 -133.36852289078246 88.18562428025507 -118.8057454775606 97.86089420547785 -109.23022060311331 C 99.65630511943664 -107.33506463837892 102.349421490375 -105.53965372442002 103.74585220123186 -105.24041857209357 C 106.23947847061913 -104.64194826744068 106.33922352139462 -104.34271311511412 105.74075321674172 -99.95393088099246 C 105.44151806441528 -97.46030461160518 104.94279281053775 -94.3682080375649 104.54381260743583 -93.171267428259 C 104.14483240433378 -91.87458176817762 104.34432250588486 -90.87713126042269 104.94279281053775 -90.87713126042269 C 105.54126311519076 -90.87713126042269 106.23947847061913 -93.07152237748352 106.63845867372117 -95.66489369764628 C 107.53616413070063 -102.34781209960437 108.234379486129 -103.04602745503274 114.01959243110764 -103.44500765813478 C 125.49027327028921 -104.24296806433864 133.56962238310416 -112.72129738025552 134.76656299241006 -125.3889188287431 C 135.36503329706295 -131.77260207837463 132.17319167224719 -139.6524610896385 127.3854292350236 -143.64226312065824 L 123.99409750865686 -146.43512454237197 L 128.482624793554 -153.61676819820747 C 131.27548621526785 -157.90580538155365 133.56962238310416 -160.49917670171652 134.26783773853253 -160.19994154938996 C 135.165543195512 -159.80096134628803 136.66171895714444 -161.99535246334887 138.45712987110323 -166.18464459591956 C 140.05305068351117 -169.77546642383726 141.1502462420416 -172.96730804865302 140.85101108971514 -173.166798150204 C 140.65152098816407 -173.36628825175495 138.95585512498076 -172.36883774400013 137.06069916024637 -170.87266198236767 Z " fill="rgb(0,0,0)" stroke-width="0.1521802243895826" stroke="rgba(0,0,0,0)" stroke-linejoin="miter" stroke-linecap="butt"/><g opacity="0.7"><path d=" M 272.4180171792618 -113.58522073799796 C 263.99992312572533 -111.24018025165563 259.79087609895714 -101.73975981980735 263.63914766628807 -93.62231198246863 C 265.8639296661513 -88.69171403682586 270.2533644226381 -86.10615657752535 276.0859010168741 -86.10615657752535 C 283.8425733947755 -86.10615657752535 289.4345930160533 -91.75830544204271 289.3744637728138 -99.57510706318371 C 289.3744637728138 -109.37617371122971 281.1968866922356 -116.05051971081932 272.4180171792618 -113.58522073799796 Z  M 281.31714517871467 -111.42056798137426 C 289.6751099890115 -107.09126246812698 291.0580825835211 -97.5307127930391 284.3837365839315 -90.79623755020995 C 281.2570159354751 -87.66951690175355 279.09236317885143 -86.94796598287897 274.1617652332086 -87.42899992879538 C 266.1044466391095 -88.21068009090945 261.1137194502271 -97.23006657684138 264.30056934192305 -105.22725592770101 C 265.38289572023484 -107.9330718734806 268.8703918281286 -111.11992176517654 271.6964662603872 -111.96173117053021 C 274.64279917912495 -112.86366981912337 278.97210469237234 -112.6231528461652 281.31714517871467 -111.42056798137426 Z " fill-rule="evenodd" fill="rgb(0,0,0)" stroke-width="0.13333333333333333" stroke="rgba(0,0,0,0)" stroke-linejoin="miter" stroke-linecap="butt"/></g><g opacity="0.7"><path d=" M 258.16738653148934 -97.41045430656001 C 259.12945442332204 -89.47339419893993 265.2025079905162 -82.91930668582941 272.7787926386991 -81.59646333455939 L 275.30422085476005 -81.23568787512212 L 275.06370388180187 -77.808321010468 C 274.9434453953228 -75.94431447004203 274.52254069264586 -70.89345803792017 274.1617652332086 -66.56415252467283 C 273.8611190170109 -62.294976254665045 273.44021431433407 -56.46243966042911 273.25982658461544 -53.63636522817043 C 273.01930961165726 -50.810290795911754 272.59840490898046 -45.09801268815485 272.17750020630365 -40.88896566138666 C 271.5762077739081 -34.63552436447381 271.63633701714764 -33.192422526724755 272.2376294495432 -33.192422526724755 C 272.7787926386991 -33.192422526724755 273.01930961165726 -34.395007391515634 273.0794388548968 -37.28121106701386 C 273.0794388548968 -39.505993066877096 273.1996973413759 -41.73077506674028 273.25982658461544 -42.21180901265663 C 273.3800850710945 -42.69284295857304 273.80098977377133 -47.86395787717399 274.1617652332086 -53.63636522817043 C 274.8231869088436 -63.13678566001872 276.5068057195509 -80.87491241568486 276.80745193574865 -81.05530014540349 C 276.8675811789882 -81.11542938864304 278.31068301673736 -81.59646333455939 280.05443107068413 -82.13762652371528 C 284.2033488542129 -83.52059911822485 287.7509742053461 -86.1662858207649 289.85549771873013 -89.53352344217947 C 291.599245772677 -92.29946863119861 293.40312306986345 -98.37252219839277 292.6815721509888 -99.15420236050684 C 292.02015047535383 -99.75549479290234 291.8397627456352 -99.27446084698593 291.4188580429584 -96.50851565796685 C 290.9979533402816 -93.20140727979182 289.6751099890115 -90.55572057725178 286.90916479999237 -87.7296461449931 C 278.6714584761746 -79.13116436173797 263.45875993656944 -82.73891895611078 260.1516515583944 -94.10334592838498 C 259.6104883692385 -95.90722322557136 259.1895836665616 -98.1320052254346 259.1895836665616 -98.97381463078821 C 259.1895836665616 -99.81562403614188 258.88893745036387 -100.53717495501641 258.5281619909266 -100.53717495501641 C 258.04712804501025 -100.53717495501641 257.92686955853117 -99.57510706318371 258.16738653148934 -97.41045430656001 Z " fill="rgb(0,0,0)" stroke-width="0.09173870440114316" stroke="rgba(0,0,0,0)" stroke-linejoin="miter" stroke-linecap="butt"/></g><path d=" M 84.99432301558909 -103.08069160035578 C 84.79903210123632 -97.28706114122255 86.81703821621534 -89.86600639581594 89.94169284586019 -84.9837335369958 C 101.0732749639701 -67.79813307394892 123.98740891469924 -66.23580575912648 138.24364566245413 -81.66378799299811 C 142.5400457782158 -86.35076993746544 144.36276097884195 -89.14993970985566 144.6882458360967 -91.49343068208933 C 144.8184397789986 -92.20949736804961 145.20902160770413 -94.74827925463609 145.66470040786066 -97.15686719832068 C 146.51096103672285 -101.90894611423894 146.1203792080172 -104.83830982953103 144.6231488646457 -104.83830982953103 C 143.84198520723453 -104.83830982953103 143.64669429288176 -103.92695222921793 143.64669429288176 -100.60700668522024 C 143.64669429288176 -93.25104891126458 139.7408760058256 -85.56960628005422 133.16608188928114 -80.10146067817567 C 123.33643920018994 -71.89924227535784 109.14529942388606 -71.50866044665223 98.85997793463832 -79.0599091349607 C 92.08989290374109 -84.07237593668272 87.7283958165284 -92.53498222530428 87.66329884507752 -100.80229759957305 C 87.66329884507752 -104.38263102937448 87.53310490217564 -104.83830982953103 86.3613594160588 -104.83830982953103 C 85.38490484429474 -104.83830982953103 85.05941998704009 -104.38263102937448 84.99432301558909 -103.08069160035578 Z " fill="rgb(0,0,0)" stroke-width="0.1521802243895826" stroke="rgba(0,0,0,0)" stroke-linejoin="miter" stroke-linecap="butt"/><rect x="83.73896932969245" y="-241" width="215.6475912017471" height="215.80757747327527" transform="matrix(1,0,0,1,0,0)" fill="rgba(0,0,0,0)" stroke-width="0" stroke="rgb(255,0,0)" stroke-linejoin="miter" stroke-linecap="square"/></svg>