<?xml version="1.0" standalone="no"?><!-- Generator: Gravit.io --><svg xmlns="http://www.w3.org/2000/svg" xmlns:xlink="http://www.w3.org/1999/xlink" style="isolation:isolate" viewBox="21.500000000000004 40.54347364404852 151 118.61561726504236" width="151" height="118.61561726504236"><line x1="37.151515151515156" y1="119.95583427841007" x2="69.34848484848486" y2="41" stroke-width="0.5" stroke="rgb(0,0,0)" stroke-linejoin="miter" stroke-linecap="square"/><circle vector-effect="non-scaling-stroke" cx="0" cy="0" r="1" fill="rgb(46,46,46)" transform="matrix(15.151515151515152,0,0,15.151515151515152,37.151515151515156,122.8181818181818)" stroke-width="1" stroke="rgb(0,0,0)"/><line x1="96.24242424242424" y1="41" x2="96.24242424242424" y2="118.8524657573626" stroke-width="0.4571294483458057" stroke="rgb(0,0,0)" stroke-linejoin="miter" stroke-linecap="square"/><circle vector-effect="non-scaling-stroke" cx="0" cy="0" r="1" fill="rgba(0,0,0,0)" transform="matrix(15.151515151515152,0,0,15.151515151515152,96.24242424242425,134.1818181818182)" stroke-width="1" stroke="rgb(0,0,0)"/><path d=" M 96.24242424242424 151.60606060606057 L 96.24242424242424 156.90909090909088 L 37.151515151515156 156.90909090909088 L 37.151515151515156 151.60606060606057" fill="rgba(0,0,0,0)" stroke-width="1.5" stroke="rgb(116,116,116)" stroke-linejoin="miter" stroke-linecap="square"/><path d=" M 37.15151515151515 153.00757771730417 L 37.15151515151515 156.79545650518295 L 42.45454545454545 156.79545650518295 L 42.45454545454545 153.00757771730417" fill="rgba(0,0,0,0)" stroke-width="1" stroke="rgb(116,116,116)" stroke-linejoin="miter" stroke-linecap="square"/><path d=" M 42.53598418606051 153.12121212121207 L 42.53598418606051 156.90909090909085 L 47.839014489090815 156.90909090909085 L 47.839014489090815 153.12121212121207" fill="rgba(0,0,0,0)" stroke-width="1" stroke="rgb(116,116,116)" stroke-linejoin="miter" stroke-linecap="square"/><path d=" M 47.92045322060587 153.12121212121207 L 47.92045322060587 156.90909090909085 L 53.223483523636176 156.90909090909085 L 53.223483523636176 153.12121212121207" fill="rgba(0,0,0,0)" stroke-width="1" stroke="rgb(116,116,116)" stroke-linejoin="miter" stroke-linecap="square"/><path d=" M 69.34848484848484 153.12121212121207 L 69.34848484848484 156.90909090909085 L 74.65151515151516 156.90909090909085 L 74.65151515151516 153.12121212121207" fill="rgba(0,0,0,0)" stroke-width="1" stroke="rgb(116,116,116)" stroke-linejoin="miter" stroke-linecap="square"/><path d=" M 53.30492225515122 153.12121212121207 L 53.30492225515122 156.90909090909085 L 58.60795255818152 156.90909090909085 L 58.60795255818152 153.12121212121207" fill="rgba(0,0,0,0)" stroke-width="1" stroke="rgb(116,116,116)" stroke-linejoin="miter" stroke-linecap="square"/><path d=" M 74.7329538830302 153.12121212121207 L 74.7329538830302 156.90909090909085 L 80.03598418606052 156.90909090909085 L 80.03598418606052 153.12121212121207" fill="rgba(0,0,0,0)" stroke-width="1" stroke="rgb(116,116,116)" stroke-linejoin="miter" stroke-linecap="square"/><path d=" M 58.68939128969658 153.12121212121207 L 58.68939128969658 156.90909090909085 L 63.992421592726885 156.90909090909085 L 63.992421592726885 153.12121212121207" fill="rgba(0,0,0,0)" stroke-width="1" stroke="rgb(116,116,116)" stroke-linejoin="miter" stroke-linecap="square"/><path d=" M 80.11742291757557 153.12121212121207 L 80.11742291757557 156.90909090909085 L 85.42045322060588 156.90909090909085 L 85.42045322060588 153.12121212121207" fill="rgba(0,0,0,0)" stroke-width="1" stroke="rgb(116,116,116)" stroke-linejoin="miter" stroke-linecap="square"/><path d=" M 64.07386032424193 153.12121212121207 L 64.07386032424193 156.90909090909085 L 69.37689062727225 156.90909090909085 L 69.37689062727225 153.12121212121207" fill="rgba(0,0,0,0)" stroke-width="1" stroke="rgb(116,116,116)" stroke-linejoin="miter" stroke-linecap="square"/><path d=" M 85.50189195212093 153.12121212121207 L 85.50189195212093 156.90909090909085 L 90.80492225515123 156.90909090909085 L 90.80492225515123 153.12121212121207" fill="rgba(0,0,0,0)" stroke-width="1" stroke="rgb(116,116,116)" stroke-linejoin="miter" stroke-linecap="square"/><path d=" M 96.24242424242424 134.35227434833837 Q 63.55303804260312 130.20455344698635 37.151515151515156 122.81818181818178" fill="rgba(0,0,0,0)" stroke-width="1" stroke-dasharray="2,3" stroke="rgb(162,162,162)" stroke-linejoin="miter" stroke-linecap="square"/><line x1="37.151515151515156" y1="122.81818181818178" x2="37.151515151515156" y2="151.60606060606057" stroke-width="1" stroke-dasharray="2,3" stroke="rgb(162,162,162)" stroke-linejoin="miter" stroke-linecap="square"/><line x1="126.54545454545453" y1="119.03030303030303" x2="126.54545454545453" y2="41" stroke-width="0.9142588966916114" stroke="rgb(162,162,162)" stroke-linejoin="miter" stroke-linecap="square"/><line x1="156.84848484848484" y1="118.8878239485688" x2="156.84848484848484" y2="41" stroke-width="0.9142588966916114" stroke="rgb(162,162,162)" stroke-linejoin="miter" stroke-linecap="square"/><line x1="96.24242424242424" y1="134.35227434833837" x2="96.24242424242424" y2="151.60606060606057" stroke-width="1" stroke-dasharray="2,3" stroke="rgb(162,162,162)" stroke-linejoin="miter" stroke-linecap="square"/><circle vector-effect="non-scaling-stroke" cx="0" cy="0" r="1" fill="rgba(0,0,0,0)" transform="matrix(15.151515151515152,0,0,15.151515151515152,126.54545454545453,134.1818181818182)" stroke-width="1" stroke="rgb(0,0,0)"/><circle vector-effect="non-scaling-stroke" cx="0" cy="0" r="1" fill="rgba(0,0,0,0)" transform="matrix(15.151515151515152,0,0,15.151515151515152,156.84848484848484,134.1818181818182)" stroke-width="1" stroke="rgb(0,0,0)"/></svg>