<?xml version="1.0" standalone="no"?><!-- Generator: Gravit.io --><svg xmlns="http://www.w3.org/2000/svg" xmlns:xlink="http://www.w3.org/1999/xlink" style="isolation:isolate" viewBox="402.6978695387531 -241 215.64759120174705 215.80757747327527" width="215.64759120174705" height="215.80757747327527"><path d=" M 449.7053423441414 -144.84367940593447 C 451.5248176488021 -145.9127217915105 459.022213266918 -154.73568827705262 458.54000061624095 -155.22472239800638 C 458.3174673833189 -155.49087940996284 457.70541502376443 -156.09135208541514 457.1427762852953 -156.5742524882427 C 456.3081906928187 -157.44088217565147 456.41997312339265 -158.09655831424035 457.8264260571416 -161.39913000361466 C 459.4434886636352 -165.122233286328 463.0981454699614 -172.35783017900994 467.60103080931776 -180.66929092754455 C 470.32634524267144 -185.7712173868247 472.1543613979851 -190.44068869258845 471.3252217714844 -190.17521943278243 C 470.3785098723587 -189.86033655189104 466.4392948996972 -182.6434846896631 458.38636983823653 -166.25501998569328 C 454.91744395607464 -159.23582260780714 454.70070056520365 -158.8957171022602 453.43876190911124 -159.00170969078297 C 452.7459395856895 -159.07021221839764 451.9171438352639 -159.33057938830305 451.61418451454983 -159.5906026821332 C 450.8784261642443 -160.22208782429223 450.5130980340417 -159.7088627069086 450.3573479483582 -158.03865989372983 C 450.25169923591056 -157.3025576673489 449.94157456884454 -156.06549775983686 449.5946475930209 -155.31099437907713 C 449.24772061719705 -154.5564909983174 448.8939721710967 -152.83074084592684 448.8373932036593 -151.4512299172096 C 448.73753433326283 -150.10886517332526 448.48261312933323 -148.1479704756849 448.23451339568044 -147.15832254967526 C 447.64527652825495 -144.80790872540248 448.1953039543962 -143.96002406844772 449.7053423441414 -144.84367940593447 Z " fill="rgb(0,0,0)" stroke-width="0.13333333333333333" stroke="rgba(0,0,0,0)" stroke-linejoin="miter" stroke-linecap="butt"/><path d=" M 465.9912154557568 -209.97638978751127 C 459.60329759345507 -209.17790005472355 453.78572954028743 -204.72917154347772 450.6488055900501 -198.22718371934917 C 449.16589608630136 -195.14729475002514 448.76665121990754 -193.5503152844497 448.5955462771674 -189.55786662051113 C 448.25333639168684 -184.13954343373734 449.33700102904163 -180.37523469345243 452.3598550174522 -175.86947120129315 C 454.5842192730752 -172.5614423083155 460.3447523453294 -168.68306360620375 464.22313104744114 -167.88457387341603 C 467.64522990224566 -167.1431191215417 473.4057629744999 -167.25718908336853 474.5464625927681 -168.05567881615625 C 474.8886724782485 -168.3408537207233 475.23088236372894 -168.4549236825501 475.23088236372894 -168.22678375889646 C 475.23088236372894 -168.05567881615625 476.5426869247374 -168.5119586634635 478.13966639031275 -169.36748337716463 C 481.9039751305977 -171.2496377473071 486.12456371818996 -175.4702263348993 488.17782303107265 -179.34860503701105 C 489.60369755390786 -182.14331910176807 489.774802496648 -182.9418088345558 489.774802496648 -188.13199209767592 C 489.774802496648 -196.2309593873799 488.0067180883324 -200.85079284136594 483.5009545961732 -204.84324150530452 C 478.5389112567067 -209.17790005472355 472.8924481462792 -210.8889494821258 465.9912154557568 -209.97638978751127 Z  M 477.56931658117867 -206.32615100905315 C 484.18537436713405 -202.78998219242183 487.66450820285195 -197.5997989293017 488.17782303107265 -190.6415312578659 C 489.0333477447738 -179.29157005609767 480.7632755123295 -169.7096932626451 470.0977340815223 -169.65265828173168 C 460.23068238350265 -169.59562330081826 453.1013097693266 -175.4131913539859 450.70584057096346 -185.45134799474573 C 449.85031585726233 -189.21565673503068 450.70584057096346 -195.0332247881983 452.75909988384615 -198.5123586239162 C 457.77817820422604 -207.12464074184086 469.29924434873453 -210.77487952029898 477.56931658117867 -206.32615100905315 Z " fill-rule="evenodd" fill="rgb(0,0,0)" stroke-width="0.13333333333333333" stroke="rgba(0,0,0,0)" stroke-linejoin="miter" stroke-linecap="butt"/><path d=" M 526.5790710826527 -203.2503636625181 C 527.1633740623386 -201.22257372409774 533.8508320409703 -191.77092918763856 534.4441967075968 -192.11676409670508 C 534.7572355359978 -192.26632106471948 535.4907631217372 -192.71029494431207 536.0981357712262 -193.13556381659146 C 537.1447021853667 -193.72909466419833 537.7521579253457 -193.45816287487435 540.6026358235806 -191.2764513059493 C 543.8082595892936 -188.7863979330741 549.9111653167693 -183.45114531984575 556.8459037814907 -177.02730234389014 C 561.1123512156769 -173.12161179702446 565.1824376183206 -170.19244774998776 565.1309365303421 -171.06152432087936 C 565.0607304350506 -172.05675582802166 559.0465696291992 -177.6630233210642 545.167864831835 -189.5294857486955 C 539.2285240552362 -194.63113349673574 538.9528121509711 -194.92546731782363 539.3685207933686 -196.12167379046878 C 539.6067395925172 -196.77585050348534 540.0645552739918 -197.51415820416582 540.391602085255 -197.7431491353932 C 541.1858586268943 -198.299269968374 540.779294761928 -198.78048768161239 539.1999264560807 -199.34567020153418 C 538.5130367528884 -199.63060997372042 537.3915672190058 -200.2378995327192 536.7467014644003 -200.7611411945444 C 536.1018357097953 -201.28438285636946 534.517770379497 -202.05515427575483 533.1954089706014 -202.45215791083922 C 531.9197685347433 -202.88187453609908 530.0833933319439 -203.61523594085827 529.1862177048376 -204.10106758805728 C 527.0554255904601 -205.25491775015496 526.097604097944 -204.93240178236215 526.5790710826527 -203.2503636625181 Z " fill="rgb(0,0,0)" stroke-width="0.13333333333333333" stroke="rgba(0,0,0,0)" stroke-linejoin="miter" stroke-linecap="butt"/><path d=" M 563.8821210433189 -155.24128649034026 C 561.8288617304362 -154.49983173846596 559.3193225702462 -153.24506215837096 558.2926929138049 -152.50360740649666 C 555.9542586963552 -150.7925579790944 552.9314047079445 -146.68603935332902 551.5055301851093 -143.37801046035133 C 547.5701165020841 -134.0813085714658 551.7907050896763 -120.79215801864169 560.1178123030339 -116.51453445013607 C 571.4677735048022 -110.75400137788185 582.760699725657 -114.11906525177292 589.319722530699 -125.29792151080093 C 592.8558913473303 -131.3436294876222 592.5707164427632 -140.52626141468093 588.5782677788246 -146.97121425789607 C 583.6732594202715 -154.8420416239464 572.9506830085508 -158.43524542149112 563.8821210433189 -155.24128649034026 Z  M 569.6426541155731 -115.83011467917518 C 569.6426541155731 -115.65900973643495 569.4145141919195 -115.37383483186791 569.072304306439 -115.20272988912768 C 568.787129401872 -115.03162494638747 568.501954497305 -115.14569490821428 568.501954497305 -115.43086981278132 C 568.501954497305 -115.77307969826177 568.787129401872 -116.05825460282881 569.072304306439 -116.05825460282881 C 569.4145141919195 -116.05825460282881 569.6426541155731 -115.944184641002 569.6426541155731 -115.83011467917518 Z " fill-rule="evenodd" fill="rgb(0,0,0)" stroke-width="0.13333333333333333" stroke="rgba(0,0,0,0)" stroke-linejoin="miter" stroke-linecap="butt"/><path d=" M 435.78155391180405 -127.1800758809434 C 431.27579041964475 -126.21048120541548 427.91072654575373 -124.21425687344617 424.37455772912244 -120.44994813316124 C 420.4961790270106 -116.40046448830927 418.89919956143524 -112.12284091980365 418.89919956143524 -106.07713294298237 C 418.89919956143524 -102.0846842790438 419.1273394850889 -101.00101964168904 420.78135393157766 -97.52188580597115 C 423.1197881490274 -92.67391242833145 426.1426421374381 -89.5940234590074 430.87654555325093 -87.36965920338449 C 445.24936074342986 -80.69656643651572 461.903575170145 -92.04652763828396 460.5347356282232 -107.6741124085578 C 459.73624589543545 -117.19895422109698 453.5764679567874 -124.72757170166686 444.4508710106421 -127.23711086185682 C 441.0287721558376 -128.14967055647134 440.34435238487674 -128.14967055647134 435.78155391180405 -127.1800758809434 Z  M 446.33302538078453 -124.55646675892663 C 447.93000484636 -123.92908196887915 447.93000484636 -123.6439070643121 446.0478504762175 -120.05070326676739 C 445.135290781603 -118.45372380119196 442.34057671684604 -113.09243559533158 439.83103755665604 -108.18742723677849 C 432.24538509517276 -93.58647212294598 430.42026570594373 -90.39251319179512 429.6788109540694 -90.39251319179512 C 428.30997141214755 -90.39251319179512 423.29089309176766 -96.32415120678957 422.1501934734995 -99.2329352333734 C 421.4087387216251 -101.17212458442927 421.0665288361447 -103.510558801879 421.0665288361447 -106.64748275211646 C 421.0665288361447 -110.63993141605503 421.29466875979836 -111.72359605340978 422.89164822537384 -114.91755498456064 C 424.83083757642964 -118.91000364849921 427.9677615266671 -121.76175269416963 432.75869992339346 -123.98611694979255 C 436.4659736827649 -125.64013139628139 442.5687166404996 -125.92530630084843 446.33302538078453 -124.55646675892663 Z " fill-rule="evenodd" fill="rgb(0,0,0)" stroke-width="0.13333333333333333" stroke="rgba(0,0,0,0)" stroke-linejoin="miter" stroke-linecap="butt"/><path d=" M 549.6233758149668 -109.95551164509413 C 549.4522708722266 -104.8793983438008 551.2203552805422 -98.37741051967227 553.9580343643859 -94.09978695116665 C 563.7110161005786 -79.0425519900269 583.7873293820983 -77.67371244810509 596.2779902021347 -91.19100292458283 C 600.0422989424196 -95.29752155034822 601.6392784079951 -97.75002572962478 601.9244533125622 -99.80328504250747 C 602.0385232743889 -100.43066983255497 602.3807331598695 -102.65503408817789 602.7799780262633 -104.76532838197399 C 603.5214327781375 -108.92888198865279 603.1792228926571 -111.49545612975615 601.8674183316488 -111.49545612975615 C 601.1829985606878 -111.49545612975615 601.0118936179476 -110.69696639696843 601.0118936179476 -107.78818237038462 C 601.0118936179476 -101.3432295271695 597.5897947631431 -94.61310177938734 591.8292616908889 -89.82216338266105 C 583.2169795729643 -82.63575578757161 570.7833537338413 -82.29354590209115 561.7718267495228 -88.9096036880465 C 555.8401887345283 -93.30129721837893 552.01884501333 -100.71584473712201 551.9618100324166 -107.95928731312485 C 551.9618100324166 -111.0962112633623 551.8477400705898 -111.49545612975615 550.8211104141484 -111.49545612975615 C 549.9655857004473 -111.49545612975615 549.6804107958802 -111.0962112633623 549.6233758149668 -109.95551164509413 Z " fill="rgb(0,0,0)" stroke-width="0.13333333333333333" stroke="rgba(0,0,0,0)" stroke-linejoin="miter" stroke-linecap="butt"/><path d=" M 513.4061629349526 -109.38516183596005 C 513.9765127440867 -108.24446221769189 514.0905827059136 -107.50300746581757 513.6913378395196 -107.10376259942373 C 513.3491279540392 -106.76155271394327 506.33382530169 -106.64748275211646 494.58461923352786 -106.76155271394327 C 479.81255917695523 -106.9896926375969 476.0482504366703 -106.87562267577009 476.21935537941044 -106.30527286663602 C 476.5615652648909 -105.33567819110806 477.13191507402496 -105.27864321019466 496.23863368001673 -105.27864321019466 L 513.2350579922124 -105.22160822928126 L 513.8624427822599 -103.4535238209656 C 514.3757576104806 -102.0276492981304 514.6609325150476 -101.79950937447677 515.6875621714889 -102.0846842790438 C 516.3149469615364 -102.31282420269744 518.1971013316789 -102.71206906909129 519.7370458163409 -103.05427895457174 C 523.9005994230197 -103.90980366827287 528.5204328770058 -105.27864321019466 528.8626427624862 -105.73492305750193 C 528.9767127243131 -106.02009796206897 528.4633978960924 -106.76155271394327 527.6078731823912 -107.50300746581757 C 526.0108937168159 -108.87184700773938 521.9043750910504 -110.01254662600755 516.1438420187962 -110.69696639696843 L 512.4936032403381 -111.0962112633623 L 513.4061629349526 -109.38516183596005 Z " fill="rgb(0,0,0)" stroke-width="0.13333333333333333" stroke="rgba(0,0,0,0)" stroke-linejoin="miter" stroke-linecap="butt"/><path d=" M 465.0404991203825 -108.52963712225892 C 464.8693941776422 -108.13039225586508 464.64125425398856 -105.79195803841534 464.5271842921618 -103.3964888400522 C 464.18497440668136 -98.43444550058568 462.18875007471206 -93.92868200842642 458.36740635351373 -89.65105843992082 C 451.69431358664497 -82.06540597843752 438.34812805290744 -79.49883183733415 429.39363604950233 -84.06163031040681 C 421.9790885307592 -87.82593905069174 416.84594024855255 -95.29752155034822 416.2185554585051 -103.22538389731196 C 415.9904155348514 -106.41934282846282 415.76227561119777 -107.21783256125053 414.96378587841 -107.38893750399077 C 414.1082611647089 -107.56004244673099 413.93715622196873 -107.16079758033713 413.93715622196873 -105.10753826745443 C 413.93715622196873 -102.19875424087061 415.1919258020637 -96.95153599683707 416.78890526763917 -93.41536718020575 C 419.6406543133095 -86.91337935607723 429.22253110676206 -80.29732157012187 437.20742843463927 -79.38476187550734 C 443.4242413542007 -78.64330712363304 452.72094324308625 -81.66616111204367 457.68298658255276 -86.00081966146269 C 462.9872398074998 -90.62065311544876 466.9226534905249 -98.49148048149908 467.0367234523518 -104.59422343923376 C 467.0937584332652 -106.41934282846282 466.9226534905249 -108.24446221769189 466.75154854778475 -108.58667210317233 C 466.23823371956405 -109.44219681687346 465.26863904403604 -109.38516183596005 465.0404991203825 -108.52963712225892 Z " fill="rgb(0,0,0)" stroke-width="0.13333333333333333" stroke="rgba(0,0,0,0)" stroke-linejoin="miter" stroke-linecap="butt"/><rect x="402.6978695387531" y="-241" width="215.64759120174705" height="215.80757747327527" transform="matrix(1,0,0,1,0,0)" fill="rgba(0,0,0,0)" stroke-width="0" stroke="rgb(255,0,0)" stroke-linejoin="miter" stroke-linecap="square"/></svg>