<?xml version="1.0" standalone="no"?><!-- Generator: Gravit.io --><svg xmlns="http://www.w3.org/2000/svg" xmlns:xlink="http://www.w3.org/1999/xlink" style="isolation:isolate" viewBox="904.9572751365688 -241 215.64759120174722 215.80757747327527" width="215.64759120174722" height="215.80757747327527"><path d=" M 928.8200477171022 -182.79570299946562 C 928.4704795611412 -181.92178260956314 928.383087522151 -179.3000214398557 928.6452636391217 -177.0278284261093 C 930.0435362629657 -165.40468724040636 939.0449162789612 -156.14113110744017 950.4932733866835 -154.56807440561568 C 954.2511310632642 -154.04372217167423 954.6006992192252 -153.78154605470348 954.6880912582154 -151.50935304095702 C 954.7754832972057 -150.1110804171131 954.862875336196 -148.71280779326912 954.9502673751862 -148.36323963730814 C 955.0376594141765 -147.92627944235687 955.3872275701375 -143.9062456488055 955.8241877650887 -139.36185962131265 C 956.1737559210496 -134.81747359381978 956.610716116001 -129.48655921541467 956.7855001939814 -127.56393435762925 C 957.3098524279229 -122.66998017417541 958.9703011687376 -101.95806693348675 959.4946534026791 -93.04407895648148 C 960.0190056366206 -84.47965913543726 960.3685737925815 -83.08138651159328 961.6794543774353 -83.86791486250553 C 962.2038066113768 -84.21748301846651 962.3785906893572 -85.79053972029095 962.1164145723865 -87.71316457807643 C 961.8542384554157 -89.46100535788133 961.4172782604645 -93.65582322941322 961.1551021434938 -96.97672071104262 C 960.892926026523 -100.3850102316623 960.4559658315718 -104.31765198622344 960.2811817535913 -105.71592461006736 C 960.1063976756108 -107.20158927290157 959.6694374806596 -112.1829354953457 959.4072613636888 -116.8147135618288 L 958.7955170907571 -125.29174134388279 L 973.1278114851576 -125.55391746085354 C 989.4701227763339 -125.81609357782429 990.4314352052266 -125.72870153883406 990.4314352052266 -123.89346872003887 C 990.4314352052266 -122.9321562911461 991.0431794781584 -122.75737221316564 993.3153724919048 -123.19433240811685 C 999.8697754161734 -124.5052129929706 1006.2493942624615 -126.51522988974625 1005.5502579505395 -127.12697416267798 C 1005.2006897945785 -127.47654231863896 1002.22936046891 -128.17567863056098 998.9958550262709 -128.7874229034927 C 995.7623495836317 -129.3117751374342 992.5288441409926 -130.01091144935617 991.9170998680609 -130.27308756632692 C 991.1305715171486 -130.53526368329767 990.5188272442169 -130.01091144935617 990.1692590882559 -128.96220698147317 C 989.7322988933047 -127.21436620166827 989.1205546203729 -127.12697416267798 976.2739248888066 -127.03958212368775 C 968.9329936136257 -127.03958212368775 962.2038066113768 -126.86479804570723 961.4172782604645 -126.69001396772677 C 959.0576932077279 -126.2530537727755 958.3585568958058 -127.91350251359023 957.7468126228741 -135.86617806170273 C 957.4846365059034 -139.97360389424438 956.9602842719619 -145.7414784676007 956.6981081549911 -148.6254157542789 L 956.0863638820595 -154.04372217167423 L 960.8055339875328 -155.5293868345084 C 969.6321299255478 -158.41332412118658 975.5747885768847 -164.26859073353313 977.7595895516408 -172.04648220366516 C 979.5074303314458 -178.338709010963 979.594822370436 -179.47480551783622 978.6335099415433 -179.56219755682645 C 978.196549746592 -179.56219755682645 977.4974134346701 -177.90174881601178 977.2352373176993 -175.80433988024583 C 975.4873965378944 -164.26859073353313 965.8742722489671 -156.57809130239139 953.2898186343715 -156.66548334138162 C 940.3557968638149 -156.7528753803719 932.2283372377219 -164.53076685050388 930.3057123799364 -178.77566920591426 C 929.781360145995 -182.7083109604754 929.3443999510437 -183.93179950633885 928.8200477171022 -182.79570299946562 Z " fill="rgb(0,0,0)" stroke-width="0.13333333333333333" stroke="rgba(0,0,0,0)" stroke-linejoin="miter" stroke-linecap="butt"/><path d=" M 1050.3778671254222 -185.05906602569968 C 1050.028298969461 -184.79688990872893 1049.7661228524903 -182.43730485599224 1049.7661228524903 -179.99032776426532 C 1049.7661228524903 -169.8528512413966 1058.5927187905054 -159.1036304455962 1068.8175873523642 -156.7440453928595 L 1073.361973379857 -155.6953409249765 L 1073.4493654188473 -150.80138674152266 C 1073.711541535818 -143.28567138836138 1073.274581340867 -128.51641679900956 1072.9250131849058 -128.07945660405835 C 1072.662837067935 -127.90467252607783 1069.8662918202472 -128.42902476001933 1066.6327863776082 -129.21555311093158 C 1059.4666391804078 -130.96339389073648 1059.3792471414176 -130.96339389073648 1059.3792471414176 -129.39033718891204 C 1059.3792471414176 -128.69120087699008 1058.8548949074761 -127.99206456506812 1058.3305426735346 -127.72988844809737 C 1057.7187984006027 -127.55510437011685 1049.0669865405685 -127.55510437011685 1039.1042940956802 -127.8172804870876 C 1026.0828802861333 -128.07945660405835 1020.9267499857086 -127.90467252607783 1020.9267499857086 -127.20553621415587 C 1020.9267499857086 -126.59379194122414 1023.898079311377 -126.24422378526316 1029.9281300017042 -126.15683174627287 C 1034.822084185158 -126.06943970728264 1039.2790781736608 -125.98204766829241 1039.7160383686119 -125.80726359031189 C 1040.2403906025534 -125.71987155132166 1044.784776630046 -125.54508747334114 1050.028298969461 -125.54508747334114 C 1057.5440143226224 -125.37030339536068 1059.3792471414176 -125.10812727838993 1059.3792471414176 -124.14681484949722 C 1059.3792471414176 -122.31158203070203 1060.8649118042517 -121.6998377577703 1062.6127525840566 -122.57375814767278 C 1063.4866729739592 -123.01071834262399 1066.283218221647 -123.62246261555572 1068.8175873523642 -123.9720307715167 L 1073.5367574578377 -124.58377504444843 L 1072.9250131849058 -106.40623093447698 C 1072.575445028945 -96.44353848958878 1072.225876872984 -87.26737439561276 1072.1384848339935 -86.13127788873959 C 1072.1384848339935 -84.99518138186636 1072.4880529899547 -83.85908487499313 1073.0124052238962 -83.68430079701267 C 1073.711541535818 -83.42212468004192 1074.2358937697595 -91.54958430613493 1074.6728539647108 -111.99932142985278 C 1075.0224221206718 -127.72988844809737 1075.459382315623 -141.88739876451746 1075.6341663936037 -143.28567138836138 C 1075.7215584325938 -144.7713360511956 1075.8963425105744 -148.17962557181522 1075.8963425105744 -150.97617081950318 C 1075.9837345495646 -155.7827329639668 1076.0711265885548 -155.95751704194726 1078.4307116412915 -155.95751704194726 C 1081.5768250449405 -155.95751704194726 1089.7916767100237 -159.80276675751816 1092.8503980746823 -162.77409608318658 C 1097.7443522581361 -167.40587414966967 1101.6769940126974 -176.31986212667493 1101.1526417787559 -181.56338446608976 C 1100.7156815838046 -186.28255457156314 1099.1426248819803 -184.7094978697387 1098.6182726480388 -179.0290153353726 C 1097.7443522581361 -169.41589104644538 1091.626909528819 -161.9001756932841 1082.3633533958528 -159.0162384066059 C 1073.361973379857 -156.13230111992777 1064.5353774418422 -158.5792782116547 1058.2431506345442 -165.48324929188425 C 1054.223116840993 -169.94024328038688 1052.6500601391685 -173.78549299595772 1052.125707905227 -179.99032776426532 C 1051.776139749266 -184.9716739867094 1051.3391795543148 -186.10777049358262 1050.3778671254222 -185.05906602569968 Z " fill="rgb(0,0,0)" stroke-width="0.13333333333333333" stroke="rgba(0,0,0,0)" stroke-linejoin="miter" stroke-linecap="butt"/><path d=" M 1070.7104594884447 -206.47992871058213 C 1066.2046959962854 -205.5103340350542 1062.8396321223945 -203.5141097030849 1059.3034633057632 -199.74980096279995 C 1055.4250846036512 -195.700317317948 1053.828105138076 -191.42269374944237 1053.828105138076 -185.37698577262108 C 1053.828105138076 -181.38453710868254 1054.0562450617294 -180.30087247132778 1055.7102595082183 -176.82173863560988 C 1058.048693725668 -171.97376525797017 1061.0715477140789 -168.89387628864614 1065.8054511298915 -166.6695120330232 C 1080.1782663200706 -159.99641926615445 1096.8324807467857 -171.34638046792267 1095.463641204864 -186.9739652381965 C 1094.665151472076 -196.4988070507357 1088.5053735334282 -204.0274245313056 1079.3797765872828 -206.53696369149554 C 1075.9576777324783 -207.44952338611006 1075.2732579615174 -207.44952338611006 1070.7104594884447 -206.47992871058213 Z  M 1081.2619309574252 -203.85631958856536 C 1082.8589104230007 -203.22893479851786 1082.8589104230007 -202.9437598939508 1080.976756052858 -199.3505560964061 C 1080.0641963582436 -197.75357663083068 1077.2694822934868 -192.3922884249703 1074.7599431332967 -187.4872800664172 C 1067.1742906718134 -172.88632495258472 1065.3491712825844 -169.69236602143386 1064.6077165307101 -169.69236602143386 C 1063.2388769887882 -169.69236602143386 1058.2197986684082 -175.6240040364283 1057.07909905014 -178.5327880630121 C 1056.3376442982658 -180.471977414068 1055.9954344127855 -182.81041163151772 1055.9954344127855 -185.94733558175517 C 1055.9954344127855 -189.93978424569377 1056.223574336439 -191.0234488830485 1057.8205538020145 -194.21740781419936 C 1059.7597431530703 -198.20985647813794 1062.8966671033077 -201.06160552380834 1067.6876055000341 -203.28596977943127 C 1071.3948792594056 -204.9399842259201 1077.4976222171404 -205.22515913048716 1081.2619309574252 -203.85631958856536 Z " fill-rule="evenodd" fill="rgb(0,0,0)" stroke-width="0.13333333333333333" stroke="rgba(0,0,0,0)" stroke-linejoin="miter" stroke-linecap="butt"/><path d=" M 949.1019507053801 -206.5916371154351 C 942.7140328430784 -205.7931473826474 936.8964647899107 -201.34441887140156 933.7595408396734 -194.842431047273 C 932.2766313359247 -191.76254207794898 931.8773864695308 -190.16556261237355 931.7062815267907 -186.17311394843497 C 931.3640716413101 -180.75479076166118 932.4477362786649 -176.99048202137627 935.4705902670755 -172.484718529217 C 937.6949545226985 -169.17668963623933 943.4554875949527 -165.29831093412758 947.3338662970644 -164.49982120133987 C 950.755965151869 -163.75836644946554 956.5164982241232 -163.87243641129237 957.6571978423914 -164.67092614408008 C 957.9994077278718 -164.95610104864713 958.3416176133522 -165.07017101047393 958.3416176133522 -164.8420310868203 C 958.3416176133522 -164.67092614408008 959.6534221743607 -165.12720599138734 961.2504016399361 -165.98273070508847 C 965.014710380221 -167.86488507523094 969.2352989678133 -172.08547366282315 971.288558280696 -175.9638523649349 C 972.7144328035312 -178.7585664296919 972.8855377462713 -179.55705616247963 972.8855377462713 -184.74723942559976 C 972.8855377462713 -192.84620671530374 971.1174533379557 -197.46604016928978 966.6116898457965 -201.45848883322836 C 961.64964650633 -205.7931473826474 956.0031833959025 -207.50419681004965 949.1019507053801 -206.5916371154351 Z  M 960.680051830802 -202.941398336977 C 967.2961096167573 -199.40522952034567 970.7752434524753 -194.21504625722554 971.288558280696 -187.25677858578973 C 972.1440829943971 -175.9068173840215 963.8740107619528 -166.32494059056893 953.2084693311456 -166.26790560965551 C 943.341417633126 -166.2108706287421 936.2120450189499 -172.02843868190973 933.8165758205868 -182.06659532266957 C 932.9610511068856 -185.83090406295452 933.8165758205868 -191.64847211612215 935.8698351334695 -195.12760595184005 C 940.8889134538493 -203.7398880697647 952.4099795983578 -207.39012684822282 960.680051830802 -202.941398336977 Z " fill-rule="evenodd" fill="rgb(0,0,0)" stroke-width="0.13333333333333333" stroke="rgba(0,0,0,0)" stroke-linejoin="miter" stroke-linecap="butt"/><rect x="904.9572751365688" y="-241" width="215.64759120174722" height="215.80757747327527" transform="matrix(1,0,0,1,0,0)" fill="rgba(0,0,0,0)" stroke-width="0" stroke="rgb(255,0,0)" stroke-linejoin="miter" stroke-linecap="square"/></svg>