<?xml version="1.0" standalone="no"?><!-- Generator: Gravit.io --><svg xmlns="http://www.w3.org/2000/svg" xmlns:xlink="http://www.w3.org/1999/xlink" style="isolation:isolate" viewBox="664.8145523179717 -241 215.64759120174722 215.80757747327527" width="215.64759120174722" height="215.80757747327527"><path d=" M 756.291032065344 -180.28882578808367 C 753.6071927687393 -179.3196615976431 750.3269447395559 -177.67953758305134 748.9850250912535 -176.71037339261076 C 745.9284303367871 -174.4738406454402 741.9772224834524 -169.10616205223084 740.1134451941435 -164.78219874103442 C 734.9694198756513 -152.630370814741 740.4862006520053 -135.25996647838298 751.3706600215687 -129.6686346104566 C 766.2063272444668 -122.13897436164902 780.9674433757925 -126.53748876441779 789.540818906613 -141.1495027125988 C 794.1629865840988 -149.05191841926813 793.790231126237 -161.05464416241682 788.5716547161725 -169.47891751009263 C 782.1602608409502 -179.7669681470772 768.144655625348 -184.46368691613537 756.291032065344 -180.28882578808367 Z  M 763.8206923141515 -128.77402151158836 C 763.8206923141515 -128.5503682368713 763.5224879478621 -128.17761277900954 763.0751813984281 -127.95395950429248 C 762.7024259405663 -127.73030622957543 762.3296704827045 -127.87940841272012 762.3296704827045 -128.25216387058188 C 762.3296704827045 -128.699470420016 762.7024259405663 -129.07222587787777 763.0751813984281 -129.07222587787777 C 763.5224879478621 -129.07222587787777 763.8206923141515 -128.92312369473305 763.8206923141515 -128.77402151158836 Z " fill-rule="evenodd" fill="rgb(0,0,0)" stroke-width="0.13333333333333333" stroke="rgba(0,0,0,0)" stroke-linejoin="miter" stroke-linecap="butt"/><path d=" M 737.653259172256 -121.0952590796361 C 737.4296058975389 -114.46021192969675 739.7406897362819 -105.9613874904486 743.3191421317547 -100.3700556225222 C 756.0673787906269 -80.68856744742125 782.3093630240949 -78.8993412496848 798.63605207844 -96.56794995233224 C 803.5564241222152 -101.93562854554159 805.6438546862411 -105.14132548315274 806.0166101441029 -107.82516477975742 C 806.1657123272477 -108.64522678705328 806.6130188766816 -111.55271935837501 807.1348765176882 -114.31110974655205 C 808.1040407081288 -119.75333943133376 807.6567341586946 -123.1081385520896 805.9420590525305 -123.1081385520896 C 805.0474459536623 -123.1081385520896 804.8237926789453 -122.06442327007667 804.8237926789453 -118.2623175998867 C 804.8237926789453 -109.83804425221092 800.3507271846041 -101.04101544667337 792.8210669357965 -94.77872375459579 C 781.5638521083714 -85.38528621647943 765.3117141455986 -84.93797966704531 753.532641677167 -93.58590628943816 C 745.7793281536424 -99.32634034050928 740.7844050182947 -109.01798224491505 740.7098539267224 -118.48597087460377 C 740.7098539267224 -122.58628091108312 740.5607517435777 -123.1081385520896 739.2188320952754 -123.1081385520896 C 738.10056572169 -123.1081385520896 737.7278102638284 -122.58628091108312 737.653259172256 -121.0952590796361 Z " fill="rgb(0,0,0)" stroke-width="0.13333333333333333" stroke="rgba(0,0,0,0)" stroke-linejoin="miter" stroke-linecap="butt"/><rect x="664.8145523179717" y="-241" width="215.64759120174722" height="215.80757747327527" transform="matrix(1,0,0,1,0,0)" fill="rgba(0,0,0,0)" stroke-width="0" stroke="rgb(255,0,0)" stroke-linejoin="miter" stroke-linecap="square"/></svg>